<svg viewBox="0 0 330 200" xmlns="http://www.w3.org/2000/svg"><g><g><g><g><g><line x1="51.53200149536133" y1="177.89999961853027" x2="46.53200149536133" y2="177.89999961853027" style="visibility: inherit;" fill="rgb(0, 0, 0)" stroke="rgb(204, 204, 204)" stroke-width="1px"></line><line x1="51.53200149536133" y1="160.10999965667733" x2="46.53200149536133" y2="160.10999965667733" style="visibility: inherit;" fill="rgb(0, 0, 0)" stroke="rgb(204, 204, 204)" stroke-width="1px"></line><line x1="51.53200149536133" y1="142.31999969482428" x2="46.53200149536133" y2="142.31999969482428" style="visibility: inherit;" fill="rgb(0, 0, 0)" stroke="rgb(204, 204, 204)" stroke-width="1px"></line><line x1="51.53200149536133" y1="124.52999973297122" x2="46.53200149536133" y2="124.52999973297122" style="visibility: inherit;" fill="rgb(0, 0, 0)" stroke="rgb(204, 204, 204)" stroke-width="1px"></line><line x1="51.53200149536133" y1="106.73999977111818" x2="46.53200149536133" y2="106.73999977111818" style="visibility: inherit;" fill="rgb(0, 0, 0)" stroke="rgb(204, 204, 204)" stroke-width="1px"></line><line x1="51.53200149536133" y1="88.94999980926514" x2="46.53200149536133" y2="88.94999980926514" style="visibility: inherit;" fill="rgb(0, 0, 0)" stroke="rgb(204, 204, 204)" stroke-width="1px"></line><line x1="51.53200149536133" y1="71.1599998474121" x2="46.53200149536133" y2="71.1599998474121" style="visibility: inherit;" fill="rgb(0, 0, 0)" stroke="rgb(204, 204, 204)" stroke-width="1px"></line><line x1="51.53200149536133" y1="53.369999885559146" x2="46.53200149536133" y2="53.369999885559146" style="visibility: inherit;" fill="rgb(0, 0, 0)" stroke="rgb(204, 204, 204)" stroke-width="1px"></line><line x1="51.53200149536133" y1="35.57999992370608" x2="46.53200149536133" y2="35.57999992370608" style="visibility: inherit;" fill="rgb(0, 0, 0)" stroke="rgb(204, 204, 204)" stroke-width="1px"></line><line x1="51.53200149536133" y1="17.78999996185304" x2="46.53200149536133" y2="17.78999996185304" style="visibility: inherit;" fill="rgb(0, 0, 0)" stroke="rgb(204, 204, 204)" stroke-width="1px"></line><line x1="51.53200149536133" y1="0" x2="46.53200149536133" y2="0" style="visibility: inherit;" fill="rgb(0, 0, 0)" stroke="rgb(204, 204, 204)" stroke-width="1px"></line></g><g transform="translate(41.53200149536133, 0)"><text style="text-anchor: end; visibility: hidden; font-family: Roboto, sans-serif; font-size: 12px; font-weight: 200;" x="0" y="177.89999961853027" dx="0em" dy="0.3em" fill="rgb(50, 49, 63)" stroke="none" stroke-width="1px">0.68</text><text style="text-anchor: end; visibility: inherit; font-family: Roboto, sans-serif; font-size: 12px; font-weight: 200;" x="0" y="160.10999965667733" dx="0em" dy="0.3em" fill="rgb(50, 49, 63)" stroke="none" stroke-width="1px">0.7</text><text style="text-anchor: end; visibility: hidden; font-family: Roboto, sans-serif; font-size: 12px; font-weight: 200;" x="0" y="142.31999969482428" dx="0em" dy="0.3em" fill="rgb(50, 49, 63)" stroke="none" stroke-width="1px">0.72</text><text style="text-anchor: end; visibility: inherit; font-family: Roboto, sans-serif; font-size: 12px; font-weight: 200;" x="0" y="124.52999973297122" dx="0em" dy="0.3em" fill="rgb(50, 49, 63)" stroke="none" stroke-width="1px">0.74</text><text style="text-anchor: end; visibility: hidden; font-family: Roboto, sans-serif; font-size: 12px; font-weight: 200;" x="0" y="106.73999977111818" dx="0em" dy="0.3em" fill="rgb(50, 49, 63)" stroke="none" stroke-width="1px">0.76</text><text style="text-anchor: end; visibility: inherit; font-family: Roboto, sans-serif; font-size: 12px; font-weight: 200;" x="0" y="88.94999980926514" dx="0em" dy="0.3em" fill="rgb(50, 49, 63)" stroke="none" stroke-width="1px">0.78</text><text style="text-anchor: end; visibility: hidden; font-family: Roboto, sans-serif; font-size: 12px; font-weight: 200;" x="0" y="71.1599998474121" dx="0em" dy="0.3em" fill="rgb(50, 49, 63)" stroke="none" stroke-width="1px">0.8</text><text style="text-anchor: end; visibility: inherit; font-family: Roboto, sans-serif; font-size: 12px; font-weight: 200;" x="0" y="53.369999885559146" dx="0em" dy="0.3em" fill="rgb(50, 49, 63)" stroke="none" stroke-width="1px">0.82</text><text style="text-anchor: end; visibility: hidden; font-family: Roboto, sans-serif; font-size: 12px; font-weight: 200;" x="0" y="35.57999992370608" dx="0em" dy="0.3em" fill="rgb(50, 49, 63)" stroke="none" stroke-width="1px">0.84</text><text style="text-anchor: end; visibility: inherit; font-family: Roboto, sans-serif; font-size: 12px; font-weight: 200;" x="0" y="17.78999996185304" dx="0em" dy="0.3em" fill="rgb(50, 49, 63)" stroke="none" stroke-width="1px">0.86</text><text style="text-anchor: end; visibility: hidden; font-family: Roboto, sans-serif; font-size: 12px; font-weight: 200;" x="0" y="0" dx="0em" dy="0.3em" fill="rgb(50, 49, 63)" stroke="none" stroke-width="1px">0.88</text></g><line x1="51.53200149536133" y1="0" x2="51.53200149536133" y2="177.89999961853027" fill="rgb(0, 0, 0)" stroke="rgb(204, 204, 204)" stroke-width="1px"></line></g></g><g transform="translate(51, 0)" clip-path="url(#clip_0)"><clipPath id="clip_0"><rect width="278" height="177"></rect></clipPath><g><g><g><line x1="0" y1="0" x2="0" y2="177.89999961853027" fill="rgb(0, 0, 0)" stroke="rgb(60, 60, 60)" stroke-width="1px" opacity="0.25"></line><line x1="23.205666542053223" y1="0" x2="23.205666542053223" y2="177.89999961853027" fill="rgb(0, 0, 0)" stroke="rgb(60, 60, 60)" stroke-width="1px" opacity="0.25"></line><line x1="46.411333084106445" y1="0" x2="46.411333084106445" y2="177.89999961853027" fill="rgb(0, 0, 0)" stroke="rgb(60, 60, 60)" stroke-width="1px" opacity="0.25"></line><line x1="69.61699962615967" y1="0" x2="69.61699962615967" y2="177.89999961853027" fill="rgb(0, 0, 0)" stroke="rgb(60, 60, 60)" stroke-width="1px" opacity="0.25"></line><line x1="92.82266616821289" y1="0" x2="92.82266616821289" y2="177.89999961853027" fill="rgb(0, 0, 0)" stroke="rgb(60, 60, 60)" stroke-width="1px" opacity="0.25"></line><line x1="116.02833271026611" y1="0" x2="116.02833271026611" y2="177.89999961853027" fill="rgb(0, 0, 0)" stroke="rgb(60, 60, 60)" stroke-width="1px" opacity="0.25"></line><line x1="139.23399925231934" y1="0" x2="139.23399925231934" y2="177.89999961853027" fill="rgb(0, 0, 0)" stroke="rgb(60, 60, 60)" stroke-width="1px" opacity="0.25"></line><line x1="162.43966579437256" y1="0" x2="162.43966579437256" y2="177.89999961853027" fill="rgb(0, 0, 0)" stroke="rgb(60, 60, 60)" stroke-width="1px" opacity="0.25"></line><line x1="185.64533233642578" y1="0" x2="185.64533233642578" y2="177.89999961853027" fill="rgb(0, 0, 0)" stroke="rgb(60, 60, 60)" stroke-width="1px" opacity="0.25"></line><line x1="208.850998878479" y1="0" x2="208.850998878479" y2="177.89999961853027" fill="rgb(0, 0, 0)" stroke="rgb(60, 60, 60)" stroke-width="1px" opacity="0.25"></line><line x1="232.05666542053223" y1="0" x2="232.05666542053223" y2="177.89999961853027" fill="rgb(0, 0, 0)" stroke="rgb(60, 60, 60)" stroke-width="1px" opacity="0.25"></line><line x1="255.26233196258545" y1="0" x2="255.26233196258545" y2="177.89999961853027" fill="rgb(0, 0, 0)" stroke="rgb(60, 60, 60)" stroke-width="1px" opacity="0.25"></line><line x1="278.4679985046387" y1="0" x2="278.4679985046387" y2="177.89999961853027" fill="rgb(0, 0, 0)" stroke="rgb(60, 60, 60)" stroke-width="1px" opacity="0.25"></line></g><g><line x1="0" y1="177.89999961853027" x2="278.4679985046387" y2="177.89999961853027" fill="rgb(0, 0, 0)" stroke="rgb(60, 60, 60)" stroke-width="1px" opacity="0.25"></line><line x1="0" y1="160.10999965667733" x2="278.4679985046387" y2="160.10999965667733" fill="rgb(0, 0, 0)" stroke="rgb(60, 60, 60)" stroke-width="1px" opacity="0.25"></line><line x1="0" y1="142.31999969482428" x2="278.4679985046387" y2="142.31999969482428" fill="rgb(0, 0, 0)" stroke="rgb(60, 60, 60)" stroke-width="1px" opacity="0.25"></line><line x1="0" y1="124.52999973297122" x2="278.4679985046387" y2="124.52999973297122" fill="rgb(0, 0, 0)" stroke="rgb(60, 60, 60)" stroke-width="1px" opacity="0.25"></line><line x1="0" y1="106.73999977111818" x2="278.4679985046387" y2="106.73999977111818" fill="rgb(0, 0, 0)" stroke="rgb(60, 60, 60)" stroke-width="1px" opacity="0.25"></line><line x1="0" y1="88.94999980926514" x2="278.4679985046387" y2="88.94999980926514" fill="rgb(0, 0, 0)" stroke="rgb(60, 60, 60)" stroke-width="1px" opacity="0.25"></line><line x1="0" y1="71.1599998474121" x2="278.4679985046387" y2="71.1599998474121" fill="rgb(0, 0, 0)" stroke="rgb(60, 60, 60)" stroke-width="1px" opacity="0.25"></line><line x1="0" y1="53.369999885559146" x2="278.4679985046387" y2="53.369999885559146" fill="rgb(0, 0, 0)" stroke="rgb(60, 60, 60)" stroke-width="1px" opacity="0.25"></line><line x1="0" y1="35.57999992370608" x2="278.4679985046387" y2="35.57999992370608" fill="rgb(0, 0, 0)" stroke="rgb(60, 60, 60)" stroke-width="1px" opacity="0.25"></line><line x1="0" y1="17.78999996185304" x2="278.4679985046387" y2="17.78999996185304" fill="rgb(0, 0, 0)" stroke="rgb(60, 60, 60)" stroke-width="1px" opacity="0.25"></line><line x1="0" y1="0" x2="278.4679985046387" y2="0" fill="rgb(0, 0, 0)" stroke="rgb(60, 60, 60)" stroke-width="1px" opacity="0.25"></line></g></g></g><g><g><line x1="0" y1="782.7599983215333" x2="278.4679985046387" y2="782.7599983215333" fill="rgb(0, 0, 0)" stroke="rgb(153, 153, 153)" stroke-width="1.5px"></line></g></g><g><g><line x1="23.205666542053223" y1="0" x2="23.205666542053223" y2="177.89999961853027" fill="rgb(0, 0, 0)" stroke="rgb(153, 153, 153)" stroke-width="1.5px"></line></g></g><g><g><g><g><g><path style="fill: none;" stroke="rgb(238, 51, 119)" stroke-width="2px" d="M23.205666542053223,35.51364430084153L25.52623319625854,38.63055886821471L27.846799850463867,35.519130075132715L30.16736650466919,32.3079035617145L32.48793315887451,33.30649889055005L34.808499813079834,31.557488663152352L37.129066467285156,31.369452364535544L39.44963312149048,31.578381418110023L41.7701997756958,34.55453008774323L44.09076642990112,32.60799904068955L46.411333084106445,33.17649963975633L48.73189973831177,35.56858820643067L51.05246639251708,35.07830620413685L53.37303304672242,36.20591604902995L55.693599700927734,33.753360350276516L58.01416635513306,34.067029390790545L60.33473300933838,34.897016698175506L62.6552996635437,36.137251191439255L64.97586631774902,34.35850291613322L67.29643297195435,33.2788317473384L69.61699962615967,32.39821389824219L71.937566280365,33.61244259099047L74.25813293457031,34.41606533582103L76.57869958877563,37.15546926556128L78.89926624298096,38.596657543733485L81.21983289718628,38.51969709410582L83.5403995513916,41.55734591497695L85.86096620559692,40.953325113414834L88.18153285980225,41.97201970475078L90.50209951400757,42.607009644393415L92.82266616821289,42.848056312172275L95.14323282241821,43.19864992264592L97.46379947662354,46.63014555361342L99.78436613082886,49.549551578159914L102.10493278503417,52.70522661599777L104.4254994392395,53.45924644280965L106.74606609344484,52.16572225498529L109.06663274765015,50.71820480322631L111.38719940185547,49.597708809504944L113.70776605606079,47.488932541618006L116.02833271026611,47.72054393836894L118.34889936447144,47.77533887330719L120.66946601867676,52.07841828423445L122.99003267288208,47.88611372405235L125.3105993270874,47.83063311494635L127.63116598129272,47.732832043817915L129.95173263549805,48.58193127164942L132.27229928970337,50.353948145317496L134.5928659439087,53.340790577214854L136.913432598114,51.29933135774164L139.23399925231934,54.78653425617634L141.55456590652466,58.42932407910267L143.87513256073,57.04599476804643L146.1956992149353,59.59262867251414L148.51626586914062,59.895737108200386L150.83683252334595,59.270599543492466L153.15739917755127,59.68001865093513L155.4779658317566,56.22821409725135L157.7985324859619,53.03085234714687L160.11909914016724,51.870173289653614L162.43966579437256,54.93970035016102L164.76023244857788,54.309659561278586L167.0807991027832,51.50591918176204L169.4013657569885,51.27913418802989L171.72193241119385,48.366726456296455L174.04249906539917,49.545639223319625L176.3630657196045,51.960558887051384L178.68363237380984,53.17241270720684L181.00419902801514,55.09071966217787L183.32476568222046,53.636998042119714L185.64533233642578,53.554971488811915L187.9658989906311,55.27593160607876L190.28646564483643,56.280895729438434L192.60703229904175,57.74957872611502L194.92759895324707,54.315011517689086L197.2481656074524,52.53736787505192L199.56873226165771,52.009426729303556L201.88929891586304,53.38903657377754L204.20986557006833,55.87684885170018L206.53043222427368,57.774405404463856L208.850998878479,59.73741680427519L211.17156553268433,61.61109984763736L213.49213218688968,60.95361804282016L215.81269884109497,58.56356138017108L218.1332654953003,58.58082997937655L220.45383214950562,58.63205766875379L222.77439880371094,58.35246738494759L225.09496545791626,58.26769750699302L227.41553211212158,60.276131194338674L229.7360987663269,61.960010561412346L232.05666542053223,63.12284011013593L234.37723207473755,63.583694349277295L236.69779872894287,66.49352137743384L239.01836538314816,66.42479097601881L241.33893203735352,63.72118420488328L243.65949869155884,63.02917374852962L245.98006534576416,64.39733448482455L248.3006319999695,60.78865537362268L250.6211986541748,64.0713359476833L252.94176530838013,65.1206945101001L255.26233196258545,65.64654216930666L257.58289861679077,67.02884321487844" fill="none"></path></g><g><path style="fill: none;" stroke="rgb(51, 187, 238)" stroke-width="2px" d="M23.205666542053223,60.36991050768952L25.52623319625854,61.22393641739793L27.846799850463867,60.67270469043545L30.16736650466919,62.08292597346476L32.48793315887451,63.5358280543168L34.808499813079834,61.27932697745638L37.129066467285156,61.130552223325516L39.44963312149048,61.560633861422126L41.7701997756958,64.63298823328327L44.09076642990112,64.24232790710109L46.411333084106445,62.95360750607102L48.73189973831177,63.45616698575021L51.05246639251708,62.82340189959504L53.37303304672242,64.90841691313845L55.693599700927734,64.44090224911444L58.01416635513306,60.81220299364475L60.33473300933838,60.56224805155001L62.6552996635437,62.286436031266454L64.97586631774902,60.522189013836766L67.29643297195435,61.51419432054834L69.61699962615967,62.82006880379986L71.937566280365,65.68868633459746L74.25813293457031,65.40909592626124L76.57869958877563,66.14011410724287L78.89926624298096,64.85127461364941L81.21983289718628,65.7690912607755L83.5403995513916,68.30949663947469L85.86096620559692,69.51473731029314L88.18153285980225,70.43710299462595L90.50209951400757,70.70897357833648L92.82266616821289,73.88894538438535L95.14323282241821,77.11335226450647L97.46379947662354,77.5063291138681L99.78436613082886,77.76597346129512L102.10493278503417,79.86282483342366L104.4254994392395,82.05573365543245L106.74606609344484,84.44397616330716L109.06663274765015,87.57166323218112L111.38719940185547,89.26731329688724L113.70776605606079,92.34732850138158L116.02833271026611,97.76304718181711L118.34889936447144,104.47784135951686L120.66946601867676,108.61137605031016L122.99003267288208,112.04094914314912L125.3105993270874,114.53257381547712L127.63116598129272,117.03485450097232L129.95173263549805,119.01020679502855L132.27229928970337,121.67556274053246L134.5928659439087,123.11888120610463L136.913432598114,124.971119286407L139.23399925231934,129.91598439848744L141.55456590652466,128.5588131849102L143.87513256073,129.24176934323356L146.1956992149353,129.34745109656825L148.51626586914062,132.8519619306669L150.83683252334595,139.68415808124803L153.15739917755127,143.85893146086357L155.4779658317566,148.03991701795545L157.7985324859619,146.95454411698125L160.11909914016724,148.1418688658399L162.43966579437256,147.22498918346932L164.76023244857788,148.23311254897035L167.0807991027832,147.56249275844493L169.4013657569885,149.0420171613367L171.72193241119385,149.00012958739097L174.04249906539917,148.97724502027538L176.3630657196045,150.42964080226437L178.68363237380984,148.573688059525L181.00419902801514,150.20334850324065L183.32476568222046,153.69652527774429L185.64533233642578,154.21526322687478L187.9658989906311,156.9001579010914L190.28646564483643,159.7885607973759L192.60703229904175,161.83547105711787L194.92759895324707,161.3223043433333L197.2481656074524,159.98752406490317L199.56873226165771,159.81013026794145L201.88929891586304,163.02637402681387L204.20986557006833,163.87660343255L206.53043222427368,164.6724462603156L208.850998878479,165.91553666259347L211.17156553268433,168.4258197660863L213.49213218688968,170.96035439162097L215.81269884109497,172.57667782214753L218.1332654953003,173.01302263710815L220.45383214950562,169.82927420414998L222.77439880371094,171.09425059809575L225.09496545791626,168.91493930016554L227.41553211212158,170.45679093225522L229.7360987663269,171.9394850993241L232.05666542053223,172.9142702471489L234.37723207473755,172.02578311318055L236.69779872894287,172.18432556976188L239.01836538314816,173.51910446150077L241.33893203735352,173.6969427804316L243.65949869155884,175.82483180928804L245.98006534576416,176.87034167963907L248.3006319999695,177.24941577416922L250.6211986541748,174.58536767956193L252.94176530838013,173.04010560553942" fill="none"></path></g><g><path style="fill: none;" stroke="rgb(187, 187, 187)" stroke-width="2px" d="M23.205666542053223,7.019472265688936L25.52623319625854,7.9839088505671505L27.846799850463867,8.639155240218216L30.16736650466919,8.56919127070918L32.48793315887451,7.337005528048937L34.808499813079834,7.41895414571812L37.129066467285156,7.10813812551547L39.44963312149048,10.199941116649159L41.7701997756958,12.573868489528493L44.09076642990112,13.21010350853373L46.411333084106445,11.282936774423053L48.73189973831177,9.73127726556497L51.05246639251708,8.298261870596043L53.37303304672242,10.467377294824074L55.693599700927734,8.344557586102933L58.01416635513306,9.372661733021305L60.33473300933838,11.732006776251373L62.6552996635437,12.134138593054466L64.97586631774902,13.346916234598616L67.29643297195435,13.733890890475976L69.61699962615967,10.38627519137106L71.937566280365,11.800279563857911L74.25813293457031,12.088325709722675L76.57869958877563,12.689223977575859L78.89926624298096,13.302850142397622L81.21983289718628,10.118472350039115L83.5403995513916,14.185672136261543L85.86096620559692,16.02800582026911L88.18153285980225,19.285080854172012L90.50209951400757,17.562460595368965L92.82266616821289,18.07640915373113L95.14323282241821,19.796253583689325L97.46379947662354,22.566016311470566L99.78436613082886,23.571146377116833L102.10493278503417,22.496448667968497L104.4254994392395,22.51416833781925L106.74606609344484,25.249730317831478L109.06663274765015,25.373152660984157L111.38719940185547,25.23303321452537L113.70776605606079,24.85509153909529L116.02833271026611,23.696073401161257L118.34889936447144,23.430704808968148L120.66946601867676,24.11118798691173L122.99003267288208,23.274713508398012L125.3105993270874,26.14810304354561L127.63116598129272,26.08584314233032L129.95173263549805,25.257199208885975L132.27229928970337,22.914720427599065L134.5928659439087,22.42867706225487L136.913432598114,21.630386660723424L139.23399925231934,22.05845003364429L141.55456590652466,23.141525734154015L143.87513256073,24.369779942853132L146.1956992149353,24.162730473577405L148.51626586914062,21.909920822400625L150.83683252334595,22.60724508952017L153.15739917755127,23.165480800729405L155.4779658317566,21.88546264525092L157.7985324859619,22.116444359799658L160.11909914016724,24.175696669666024L162.43966579437256,22.94127244633415L164.76023244857788,24.378059576176568L167.0807991027832,25.84195353762878L169.4013657569885,28.882229018236167L171.72193241119385,27.23454189228463L174.04249906539917,26.98598069392311L176.3630657196045,24.02629981198388L178.68363237380984,25.623347868719847L181.00419902801514,24.439911808958286L183.32476568222046,26.214649707815834L185.64533233642578,28.513059360474372L187.9658989906311,27.948707610422254L190.28646564483643,25.83016513815932L192.60703229904175,23.597117464290694L194.92759895324707,24.266195851911927L197.2481656074524,24.854246203729502L199.56873226165771,26.40539674143976L201.88929891586304,28.21973299007719L204.20986557006833,30.324738567131565L206.53043222427368,30.610168711419945L208.850998878479,29.63943314666752L211.17156553268433,29.353279451090096L213.49213218688968,28.70510088565955L215.81269884109497,26.171072057389868L218.1332654953003,28.744709104886336L220.45383214950562,29.009834691687235L222.77439880371094,28.500879067951L225.09496545791626,25.889017411206186L227.41553211212158,24.759174407329635L229.7360987663269,25.264022749520294L232.05666542053223,26.475156979289473L234.37723207473755,27.005054678274732L236.69779872894287,29.236636951723597L239.01836538314816,31.24003325240604L241.33893203735352,29.534991092054277L243.65949869155884,31.642761887839L245.98006534576416,34.57591125490918L248.3006319999695,33.85257068304643L250.6211986541748,34.06295113993481L252.94176530838013,36.255579484595636" fill="none"></path></g></g></g></g><g opacity="0.2"><g><g><g><path style="fill: none;" stroke="rgb(238, 51, 119)" stroke-width="2px" d="M23.205666542053223,35.51364430084153L25.52623319625854,40.500707608638784L27.846799850463867,32.53215843377394L30.16736650466919,28.531501181934576L32.48793315887451,34.61026495187799L34.808499813079834,29.137977874979587L37.129066467285156,31.10055744893248L39.44963312149048,31.883001983940634L41.7701997756958,38.94377128833458L44.09076642990112,29.7176272923291L46.411333084106445,34.02409427976455L48.73189973831177,39.14370341609686L51.05246639251708,34.34448405649949L53.37303304672242,37.89512171129662L55.693599700927734,30.077409689304663L58.01416635513306,34.53731172785229L60.33473300933838,36.14164643644063L62.6552996635437,37.99728803593144L64.97586631774902,31.690651477570558L67.29643297195435,31.6594236803677L69.61699962615967,31.07733541977314L71.937566280365,35.433745675400594L74.25813293457031,35.62148358693765L76.57869958877563,41.264542709320615L78.89926624298096,40.75842971764235L81.21983289718628,38.40425674786548L83.5403995513916,46.11381137377284L85.86096620559692,40.04729483838606L88.18153285980225,43.5000606533929L90.50209951400757,43.55949420290802L92.82266616821289,43.20962623390688L95.14323282241821,43.724540268599874L97.46379947662354,51.77738859041303L99.78436613082886,53.928660405868435L102.10493278503417,57.438739037133836L104.4254994392395,54.59027616358403L106.74606609344484,50.22543599326175L109.06663274765015,48.54692863902519L111.38719940185547,47.91696482516377L113.70776605606079,44.325768146834896L116.02833271026611,48.067961033030905L118.34889936447144,47.85753127564865L120.66946601867676,58.53303739751927L122.99003267288208,41.59765688559492L125.3105993270874,47.74741220130172L127.63116598129272,47.58613043714026L129.95173263549805,49.85558011331752L132.27229928970337,53.011973455719975L134.5928659439087,57.821054224960356L136.913432598114,48.23714252857305L139.23399925231934,60.017338603786264L141.55456590652466,63.893508813465495L143.87513256073,54.97100080146813L146.1956992149353,63.41257952920889L148.51626586914062,60.35039976172916L150.83683252334595,58.332893196431336L153.15739917755127,60.29414731209888L155.4779658317566,51.050507266726775L157.7985324859619,48.234809721990835L160.11909914016724,50.12915470341388L162.43966579437256,59.543990940921866L164.76023244857788,53.36459837795464L167.0807991027832,47.300308612487264L169.4013657569885,50.93895669743167L171.72193241119385,43.99811485869623L174.04249906539917,51.31400837385447L176.3630657196045,55.582938382648784L178.68363237380984,54.990193437440006L181.00419902801514,57.96818009463427L183.32476568222046,51.456415612032536L185.64533233642578,53.43193165885045L187.9658989906311,57.85737178197896L190.28646564483643,57.788341914477904L192.60703229904175,59.95260322112974L194.92759895324707,49.16316070505038L197.2481656074524,49.870902411096175L199.56873226165771,51.21751501068095L201.88929891586304,55.45845134048866L204.20986557006833,59.608567268584146L206.53043222427368,60.62074023360926L208.850998878479,62.68193390399224L211.17156553268433,64.42162441268059L213.49213218688968,59.967395335594254L215.81269884109497,54.97847638619751L218.1332654953003,58.606732878184765L220.45383214950562,58.70889920281959L222.77439880371094,57.93308195923819L225.09496545791626,58.14054269006126L227.41553211212158,63.28878172535715L229.7360987663269,64.48582961202297L232.05666542053223,64.86708443322121L234.37723207473755,64.2749757079894L236.69779872894287,70.85826191966865L239.01836538314816,66.32169537389635L241.33893203735352,59.66577404817988L243.65949869155884,61.99115806399893L245.98006534576416,66.44957558926697L248.3006319999695,55.375636706819954L250.6211986541748,68.99535680877412L252.94176530838013,66.69473235372541L255.26233196258545,66.4353136581166L257.58289861679077,69.1022947832362" fill="none"></path></g><g><path style="fill: none;" stroke="rgb(51, 187, 238)" stroke-width="2px" d="M23.205666542053223,60.36991050768952L25.52623319625854,61.736351963223136L27.846799850463867,60.14352223255164L30.16736650466919,63.74134620230725L32.48793315887451,65.43273701107742L34.808499813079834,58.15777364777082L37.129066467285156,60.91780194452203L39.44963312149048,62.187697018550715L41.7701997756958,69.16411415766495L44.09076642990112,63.662242851837526L46.411333084106445,61.032215503713495L48.73189973831177,64.20727129877369L51.05246639251708,61.87632035815616L53.37303304672242,68.03185467198708L55.693599700927734,63.74017979901614L58.01416635513306,55.371713350295316L60.33473300933838,60.18742141096245L62.6552996635437,64.87228022969978L64.97586631774902,57.87608725296811L67.29643297195435,63.002111607401524L69.61699962615967,64.77880891141686L71.937566280365,69.9915182377122L74.25813293457031,64.98971583378184L76.57869958877563,67.23663271910814L78.89926624298096,62.91802453377888L81.21983289718628,67.14581231739592L83.5403995513916,72.1200982073224L85.86096620559692,71.32259646619266L88.18153285980225,71.820650671496L90.50209951400757,71.11677930364343L92.82266616821289,78.65890203894529L95.14323282241821,81.94996194313936L97.46379947662354,78.09579434099695L99.78436613082886,78.15543996383772L102.10493278503417,83.00810180150043L104.4254994392395,85.34509683189916L106.74606609344484,88.02633988816913L109.06663274765015,92.26319380645796L111.38719940185547,91.8107883845021L113.70776605606079,96.96735129782999L116.02833271026611,105.8866251916111L118.34889936447144,114.55003261798814L120.66946601867676,114.81167808351634L122.99003267288208,117.18530878092216L125.3105993270874,118.27001082332166L127.63116598129272,120.78827552882493L129.95173263549805,121.97323523592834L132.27229928970337,125.67359665863867L134.5928659439087,125.28385890441419L136.913432598114,127.74947640682333L139.23399925231934,137.3332820665478L141.55456590652466,126.52305636455415L143.87513256073,130.2662035807156L146.1956992149353,129.50597372656992L148.51626586914062,138.1087281818093L150.83683252334595,149.93245230711346L153.15739917755127,150.12109153028456L155.4779658317566,154.31139535359188L157.7985324859619,145.3264847655202L160.11909914016724,149.92285598912753L162.43966579437256,145.8496696599138L164.76023244857788,149.74529759722196L167.0807991027832,146.55656307265696L169.4013657569885,151.26130376567454L171.72193241119385,148.93729822647225L174.04249906539917,148.94291816960214L176.3630657196045,152.6082344752478L178.68363237380984,145.78975894541594L181.00419902801514,152.64783916881407L183.32476568222046,158.93629043949994L185.64533233642578,154.99337015057046L187.9658989906311,160.9274999124164L190.28646564483643,164.12116514180292L192.60703229904175,164.90583644673046L194.92759895324707,160.55255427265644L197.2481656074524,157.98535364725802L199.56873226165771,159.5440395724989L201.88929891586304,167.85073966512238L204.20986557006833,165.15194754115436L206.53043222427368,165.86621050196408L208.850998878479,167.7801722660103L211.17156553268433,172.19124442132562L213.49213218688968,174.76215632992302L215.81269884109497,175.00116296793743L218.1332654953003,173.6675398595491L220.45383214950562,165.05365155471276L222.77439880371094,172.99171518901454L225.09496545791626,165.64597235327022L227.41553211212158,172.76956838038979L229.7360987663269,174.16352634992728L232.05666542053223,174.376447968886L234.37723207473755,170.69305241222816L236.69779872894287,172.4221392546337L239.01836538314816,175.521272799109L241.33893203735352,173.96370025882783L243.65949869155884,179.01666535257272L245.98006534576416,178.43860648516562L248.3006319999695,177.81802691596448L250.6211986541748,170.5892955376509L252.94176530838013,170.72221249450587" fill="none"></path></g><g><path style="fill: none;" stroke="rgb(187, 187, 187)" stroke-width="2px" d="M23.205666542053223,7.019472265688936L25.52623319625854,8.56257080149408L27.846799850463867,9.268191774283313L30.16736650466919,8.486913642566268L32.48793315887451,5.728263822431817L34.808499813079834,7.532318585456782L37.129066467285156,6.663666243569427L39.44963312149048,14.707819559030671L41.7701997756958,16.07495025287267L44.09076642990112,14.15483836238241L46.411333084106445,8.409665933696036L48.73189973831177,7.412232064804019L51.05246639251708,6.153417822040868L53.37303304672242,13.716800908239751L55.693599700927734,5.16282331790126L58.01416635513306,10.914092854700247L60.33473300933838,15.270025945344972L62.6552996635437,12.73723421703426L64.97586631774902,15.165897942447831L67.29643297195435,14.314317503275792L69.61699962615967,5.365035233914345L71.937566280365,13.921239594172224L74.25813293457031,12.520389241550905L76.57869958877563,13.590564261142962L78.89926624298096,14.223285028237914L81.21983289718628,5.3419192414178305L83.5403995513916,20.2864614087456L85.86096620559692,18.79150351786439L88.18153285980225,24.17069040479976L90.50209951400757,14.978531159230673L92.82266616821289,18.847331820843355L95.14323282241821,22.376019886435078L97.46379947662354,26.720660072488617L99.78436613082886,25.078841403590562L102.10493278503417,20.88440215043295L104.4254994392395,22.540747842138448L106.74606609344484,29.35307324552628L109.06663274765015,25.558286174567574L111.38719940185547,25.022854045617354L113.70776605606079,24.288179027213236L116.02833271026611,21.957546196584193L118.34889936447144,23.032651920997754L120.66946601867676,25.131912753336L122.99003267288208,22.020001790989912L125.3105993270874,30.458187345520177L127.63116598129272,25.99245329051701L129.95173263549805,24.014233308796978L132.27229928970337,19.401002255799998L134.5928659439087,21.69961201425497L136.913432598114,20.432951058442544L139.23399925231934,22.700545093020313L141.55456590652466,24.766139284910654L143.87513256073,26.21216125589672L146.1956992149353,23.85215626966431L148.51626586914062,18.53070634563881L150.83683252334595,23.653231490198895L153.15739917755127,24.002834367542963L155.4779658317566,19.96543541203369L157.7985324859619,22.46291693162266L160.11909914016724,27.26457513446508L162.43966579437256,21.089636111336635L164.76023244857788,26.533240270940045L167.0807991027832,28.037794479807193L169.4013657569885,33.442642239146956L171.72193241119385,24.763011203357227L174.04249906539917,26.613138896380978L176.3630657196045,19.586778489074735L178.68363237380984,28.0189199538238L181.00419902801514,22.664757719315848L183.32476568222046,28.876756556102695L185.64533233642578,31.960673839462178L187.9658989906311,27.102179985343927L190.28646564483643,22.652351429764966L192.60703229904175,20.247545953487705L194.92759895324707,25.269813433343874L197.2481656074524,25.736321731455863L199.56873226165771,28.73212254800524L201.88929891586304,30.94123736303334L204.20986557006833,33.48224693271323L206.53043222427368,31.038313927852418L208.850998878479,28.183329799538686L211.17156553268433,28.924048907724003L213.49213218688968,27.732833037513732L215.81269884109497,22.370028814985293L218.1332654953003,32.60516467613105L220.45383214950562,29.40752307188848L222.77439880371094,27.737445632346752L225.09496545791626,21.97122492608901L227.41553211212158,23.064409901514754L229.7360987663269,26.021295262806238L232.05666542053223,28.291858323943192L234.37723207473755,27.79990122675247L236.69779872894287,32.58401036189685L239.01836538314816,34.24512770342961L241.33893203735352,26.97742785152673L243.65949869155884,34.80441808151614L245.98006534576416,38.97563530551441L248.3006319999695,32.7675598252522L250.6211986541748,34.37852182526729L252.94176530838013,39.54452200158688" fill="none"></path></g></g></g></g></g></g><g transform="translate(51, 177)" clip-path="url(#clip_1)"><clipPath id="clip_1"><rect width="278" height="22"></rect></clipPath><g><g><line x1="0" y1="0" x2="0" y2="5" style="visibility: inherit;" fill="rgb(0, 0, 0)" stroke="rgb(204, 204, 204)" stroke-width="1px"></line><line x1="23.205666542053223" y1="0" x2="23.205666542053223" y2="5" style="visibility: inherit;" fill="rgb(0, 0, 0)" stroke="rgb(204, 204, 204)" stroke-width="1px"></line><line x1="46.411333084106445" y1="0" x2="46.411333084106445" y2="5" style="visibility: inherit;" fill="rgb(0, 0, 0)" stroke="rgb(204, 204, 204)" stroke-width="1px"></line><line x1="69.61699962615967" y1="0" x2="69.61699962615967" y2="5" style="visibility: inherit;" fill="rgb(0, 0, 0)" stroke="rgb(204, 204, 204)" stroke-width="1px"></line><line x1="92.82266616821289" y1="0" x2="92.82266616821289" y2="5" style="visibility: inherit;" fill="rgb(0, 0, 0)" stroke="rgb(204, 204, 204)" stroke-width="1px"></line><line x1="116.02833271026611" y1="0" x2="116.02833271026611" y2="5" style="visibility: inherit;" fill="rgb(0, 0, 0)" stroke="rgb(204, 204, 204)" stroke-width="1px"></line><line x1="139.23399925231934" y1="0" x2="139.23399925231934" y2="5" style="visibility: inherit;" fill="rgb(0, 0, 0)" stroke="rgb(204, 204, 204)" stroke-width="1px"></line><line x1="162.43966579437256" y1="0" x2="162.43966579437256" y2="5" style="visibility: inherit;" fill="rgb(0, 0, 0)" stroke="rgb(204, 204, 204)" stroke-width="1px"></line><line x1="185.64533233642578" y1="0" x2="185.64533233642578" y2="5" style="visibility: inherit;" fill="rgb(0, 0, 0)" stroke="rgb(204, 204, 204)" stroke-width="1px"></line><line x1="208.850998878479" y1="0" x2="208.850998878479" y2="5" style="visibility: inherit;" fill="rgb(0, 0, 0)" stroke="rgb(204, 204, 204)" stroke-width="1px"></line><line x1="232.05666542053223" y1="0" x2="232.05666542053223" y2="5" style="visibility: inherit;" fill="rgb(0, 0, 0)" stroke="rgb(204, 204, 204)" stroke-width="1px"></line><line x1="255.26233196258545" y1="0" x2="255.26233196258545" y2="5" style="visibility: inherit;" fill="rgb(0, 0, 0)" stroke="rgb(204, 204, 204)" stroke-width="1px"></line><line x1="278.4679985046387" y1="0" x2="278.4679985046387" y2="5" style="visibility: inherit;" fill="rgb(0, 0, 0)" stroke="rgb(204, 204, 204)" stroke-width="1px"></line></g><g transform="translate(0, 8)"><text style="text-anchor: middle; visibility: hidden; font-family: Roboto, sans-serif; font-size: 12px; font-weight: 200;" x="0" y="0" dx="0em" dy="0.95em" fill="rgb(50, 49, 63)" stroke="none" stroke-width="1px">-10</text><text style="text-anchor: middle; visibility: hidden; font-family: Roboto, sans-serif; font-size: 12px; font-weight: 200;" x="23.205666542053223" y="0" dx="0em" dy="0.95em" fill="rgb(50, 49, 63)" stroke="none" stroke-width="1px">0</text><text style="text-anchor: middle; visibility: hidden; font-family: Roboto, sans-serif; font-size: 12px; font-weight: 200;" x="46.411333084106445" y="0" dx="0em" dy="0.95em" fill="rgb(50, 49, 63)" stroke="none" stroke-width="1px">10</text><text style="text-anchor: middle; visibility: hidden; font-family: Roboto, sans-serif; font-size: 12px; font-weight: 200;" x="69.61699962615967" y="0" dx="0em" dy="0.95em" fill="rgb(50, 49, 63)" stroke="none" stroke-width="1px">20</text><text style="text-anchor: middle; visibility: hidden; font-family: Roboto, sans-serif; font-size: 12px; font-weight: 200;" x="92.82266616821289" y="0" dx="0em" dy="0.95em" fill="rgb(50, 49, 63)" stroke="none" stroke-width="1px">30</text><text style="text-anchor: middle; visibility: hidden; font-family: Roboto, sans-serif; font-size: 12px; font-weight: 200;" x="116.02833271026611" y="0" dx="0em" dy="0.95em" fill="rgb(50, 49, 63)" stroke="none" stroke-width="1px">40</text><text style="text-anchor: middle; visibility: hidden; font-family: Roboto, sans-serif; font-size: 12px; font-weight: 200;" x="139.23399925231934" y="0" dx="0em" dy="0.95em" fill="rgb(50, 49, 63)" stroke="none" stroke-width="1px">50</text><text style="text-anchor: middle; visibility: hidden; font-family: Roboto, sans-serif; font-size: 12px; font-weight: 200;" x="162.43966579437256" y="0" dx="0em" dy="0.95em" fill="rgb(50, 49, 63)" stroke="none" stroke-width="1px">60</text><text style="text-anchor: middle; visibility: hidden; font-family: Roboto, sans-serif; font-size: 12px; font-weight: 200;" x="185.64533233642578" y="0" dx="0em" dy="0.95em" fill="rgb(50, 49, 63)" stroke="none" stroke-width="1px">70</text><text style="text-anchor: middle; visibility: hidden; font-family: Roboto, sans-serif; font-size: 12px; font-weight: 200;" x="208.850998878479" y="0" dx="0em" dy="0.95em" fill="rgb(50, 49, 63)" stroke="none" stroke-width="1px">80</text><text style="text-anchor: middle; visibility: hidden; font-family: Roboto, sans-serif; font-size: 12px; font-weight: 200;" x="232.05666542053223" y="0" dx="0em" dy="0.95em" fill="rgb(50, 49, 63)" stroke="none" stroke-width="1px">90</text><text style="text-anchor: middle; visibility: hidden; font-family: Roboto, sans-serif; font-size: 12px; font-weight: 200;" x="255.26233196258545" y="0" dx="0em" dy="0.95em" fill="rgb(50, 49, 63)" stroke="none" stroke-width="1px">100</text><text style="text-anchor: middle; visibility: hidden; font-family: Roboto, sans-serif; font-size: 12px; font-weight: 200;" x="278.4679985046387" y="0" dx="0em" dy="0.95em" fill="rgb(50, 49, 63)" stroke="none" stroke-width="1px">110</text></g><line x1="0" y1="0" x2="278.4679985046387" y2="0" fill="rgb(0, 0, 0)" stroke="rgb(204, 204, 204)" stroke-width="1px"></line></g></g></g></g></svg>