<svg viewBox="0 0 330 200" xmlns="http://www.w3.org/2000/svg"><g><g><g><g><g><line x1="51.53200149536133" y1="177.89999961853027" x2="46.53200149536133" y2="177.89999961853027" style="visibility: inherit;" fill="rgb(0, 0, 0)" stroke="rgb(204, 204, 204)" stroke-width="1px"></line><line x1="51.53200149536133" y1="161.72727238048205" x2="46.53200149536133" y2="161.72727238048205" style="visibility: inherit;" fill="rgb(0, 0, 0)" stroke="rgb(204, 204, 204)" stroke-width="1px"></line><line x1="51.53200149536133" y1="145.55454514243388" x2="46.53200149536133" y2="145.55454514243388" style="visibility: inherit;" fill="rgb(0, 0, 0)" stroke="rgb(204, 204, 204)" stroke-width="1px"></line><line x1="51.53200149536133" y1="129.38181790438566" x2="46.53200149536133" y2="129.38181790438566" style="visibility: inherit;" fill="rgb(0, 0, 0)" stroke="rgb(204, 204, 204)" stroke-width="1px"></line><line x1="51.53200149536133" y1="113.20909066633746" x2="46.53200149536133" y2="113.20909066633746" style="visibility: inherit;" fill="rgb(0, 0, 0)" stroke="rgb(204, 204, 204)" stroke-width="1px"></line><line x1="51.53200149536133" y1="97.03636342828923" x2="46.53200149536133" y2="97.03636342828923" style="visibility: inherit;" fill="rgb(0, 0, 0)" stroke="rgb(204, 204, 204)" stroke-width="1px"></line><line x1="51.53200149536133" y1="80.86363619024102" x2="46.53200149536133" y2="80.86363619024102" style="visibility: inherit;" fill="rgb(0, 0, 0)" stroke="rgb(204, 204, 204)" stroke-width="1px"></line><line x1="51.53200149536133" y1="64.69090895219284" x2="46.53200149536133" y2="64.69090895219284" style="visibility: inherit;" fill="rgb(0, 0, 0)" stroke="rgb(204, 204, 204)" stroke-width="1px"></line><line x1="51.53200149536133" y1="48.51818171414462" x2="46.53200149536133" y2="48.51818171414462" style="visibility: inherit;" fill="rgb(0, 0, 0)" stroke="rgb(204, 204, 204)" stroke-width="1px"></line><line x1="51.53200149536133" y1="32.34545447609644" x2="46.53200149536133" y2="32.34545447609644" style="visibility: inherit;" fill="rgb(0, 0, 0)" stroke="rgb(204, 204, 204)" stroke-width="1px"></line><line x1="51.53200149536133" y1="16.17272723804821" x2="46.53200149536133" y2="16.17272723804821" style="visibility: inherit;" fill="rgb(0, 0, 0)" stroke="rgb(204, 204, 204)" stroke-width="1px"></line><line x1="51.53200149536133" y1="0" x2="46.53200149536133" y2="0" style="visibility: inherit;" fill="rgb(0, 0, 0)" stroke="rgb(204, 204, 204)" stroke-width="1px"></line></g><g transform="translate(41.53200149536133, 0)"><text style="text-anchor: end; visibility: hidden; font-family: Roboto, sans-serif; font-size: 12px; font-weight: 200;" x="0" y="177.89999961853027" dx="0em" dy="0.3em" fill="rgb(50, 49, 63)" stroke="none" stroke-width="1px">0.5</text><text style="text-anchor: end; visibility: inherit; font-family: Roboto, sans-serif; font-size: 12px; font-weight: 200;" x="0" y="161.72727238048205" dx="0em" dy="0.3em" fill="rgb(50, 49, 63)" stroke="none" stroke-width="1px">0.55</text><text style="text-anchor: end; visibility: hidden; font-family: Roboto, sans-serif; font-size: 12px; font-weight: 200;" x="0" y="145.55454514243388" dx="0em" dy="0.3em" fill="rgb(50, 49, 63)" stroke="none" stroke-width="1px">0.6</text><text style="text-anchor: end; visibility: inherit; font-family: Roboto, sans-serif; font-size: 12px; font-weight: 200;" x="0" y="129.38181790438566" dx="0em" dy="0.3em" fill="rgb(50, 49, 63)" stroke="none" stroke-width="1px">0.65</text><text style="text-anchor: end; visibility: hidden; font-family: Roboto, sans-serif; font-size: 12px; font-weight: 200;" x="0" y="113.20909066633746" dx="0em" dy="0.3em" fill="rgb(50, 49, 63)" stroke="none" stroke-width="1px">0.7</text><text style="text-anchor: end; visibility: inherit; font-family: Roboto, sans-serif; font-size: 12px; font-weight: 200;" x="0" y="97.03636342828923" dx="0em" dy="0.3em" fill="rgb(50, 49, 63)" stroke="none" stroke-width="1px">0.75</text><text style="text-anchor: end; visibility: hidden; font-family: Roboto, sans-serif; font-size: 12px; font-weight: 200;" x="0" y="80.86363619024102" dx="0em" dy="0.3em" fill="rgb(50, 49, 63)" stroke="none" stroke-width="1px">0.8</text><text style="text-anchor: end; visibility: inherit; font-family: Roboto, sans-serif; font-size: 12px; font-weight: 200;" x="0" y="64.69090895219284" dx="0em" dy="0.3em" fill="rgb(50, 49, 63)" stroke="none" stroke-width="1px">0.85</text><text style="text-anchor: end; visibility: hidden; font-family: Roboto, sans-serif; font-size: 12px; font-weight: 200;" x="0" y="48.51818171414462" dx="0em" dy="0.3em" fill="rgb(50, 49, 63)" stroke="none" stroke-width="1px">0.9</text><text style="text-anchor: end; visibility: inherit; font-family: Roboto, sans-serif; font-size: 12px; font-weight: 200;" x="0" y="32.34545447609644" dx="0em" dy="0.3em" fill="rgb(50, 49, 63)" stroke="none" stroke-width="1px">0.95</text><text style="text-anchor: end; visibility: hidden; font-family: Roboto, sans-serif; font-size: 12px; font-weight: 200;" x="0" y="16.17272723804821" dx="0em" dy="0.3em" fill="rgb(50, 49, 63)" stroke="none" stroke-width="1px">1</text><text style="text-anchor: end; visibility: hidden; font-family: Roboto, sans-serif; font-size: 12px; font-weight: 200;" x="0" y="0" dx="0em" dy="0.3em" fill="rgb(50, 49, 63)" stroke="none" stroke-width="1px">1.05</text></g><line x1="51.53200149536133" y1="0" x2="51.53200149536133" y2="177.89999961853027" fill="rgb(0, 0, 0)" stroke="rgb(204, 204, 204)" stroke-width="1px"></line></g></g><g transform="translate(51, 0)" clip-path="url(#clip_0)"><clipPath id="clip_0"><rect width="278" height="177"></rect></clipPath><g><g><g><line x1="0" y1="0" x2="0" y2="177.89999961853027" fill="rgb(0, 0, 0)" stroke="rgb(60, 60, 60)" stroke-width="1px" opacity="0.25"></line><line x1="23.205666542053223" y1="0" x2="23.205666542053223" y2="177.89999961853027" fill="rgb(0, 0, 0)" stroke="rgb(60, 60, 60)" stroke-width="1px" opacity="0.25"></line><line x1="46.411333084106445" y1="0" x2="46.411333084106445" y2="177.89999961853027" fill="rgb(0, 0, 0)" stroke="rgb(60, 60, 60)" stroke-width="1px" opacity="0.25"></line><line x1="69.61699962615967" y1="0" x2="69.61699962615967" y2="177.89999961853027" fill="rgb(0, 0, 0)" stroke="rgb(60, 60, 60)" stroke-width="1px" opacity="0.25"></line><line x1="92.82266616821289" y1="0" x2="92.82266616821289" y2="177.89999961853027" fill="rgb(0, 0, 0)" stroke="rgb(60, 60, 60)" stroke-width="1px" opacity="0.25"></line><line x1="116.02833271026611" y1="0" x2="116.02833271026611" y2="177.89999961853027" fill="rgb(0, 0, 0)" stroke="rgb(60, 60, 60)" stroke-width="1px" opacity="0.25"></line><line x1="139.23399925231934" y1="0" x2="139.23399925231934" y2="177.89999961853027" fill="rgb(0, 0, 0)" stroke="rgb(60, 60, 60)" stroke-width="1px" opacity="0.25"></line><line x1="162.43966579437256" y1="0" x2="162.43966579437256" y2="177.89999961853027" fill="rgb(0, 0, 0)" stroke="rgb(60, 60, 60)" stroke-width="1px" opacity="0.25"></line><line x1="185.64533233642578" y1="0" x2="185.64533233642578" y2="177.89999961853027" fill="rgb(0, 0, 0)" stroke="rgb(60, 60, 60)" stroke-width="1px" opacity="0.25"></line><line x1="208.850998878479" y1="0" x2="208.850998878479" y2="177.89999961853027" fill="rgb(0, 0, 0)" stroke="rgb(60, 60, 60)" stroke-width="1px" opacity="0.25"></line><line x1="232.05666542053223" y1="0" x2="232.05666542053223" y2="177.89999961853027" fill="rgb(0, 0, 0)" stroke="rgb(60, 60, 60)" stroke-width="1px" opacity="0.25"></line><line x1="255.26233196258545" y1="0" x2="255.26233196258545" y2="177.89999961853027" fill="rgb(0, 0, 0)" stroke="rgb(60, 60, 60)" stroke-width="1px" opacity="0.25"></line><line x1="278.4679985046387" y1="0" x2="278.4679985046387" y2="177.89999961853027" fill="rgb(0, 0, 0)" stroke="rgb(60, 60, 60)" stroke-width="1px" opacity="0.25"></line></g><g><line x1="0" y1="177.89999961853027" x2="278.4679985046387" y2="177.89999961853027" fill="rgb(0, 0, 0)" stroke="rgb(60, 60, 60)" stroke-width="1px" opacity="0.25"></line><line x1="0" y1="161.72727238048205" x2="278.4679985046387" y2="161.72727238048205" fill="rgb(0, 0, 0)" stroke="rgb(60, 60, 60)" stroke-width="1px" opacity="0.25"></line><line x1="0" y1="145.55454514243388" x2="278.4679985046387" y2="145.55454514243388" fill="rgb(0, 0, 0)" stroke="rgb(60, 60, 60)" stroke-width="1px" opacity="0.25"></line><line x1="0" y1="129.38181790438566" x2="278.4679985046387" y2="129.38181790438566" fill="rgb(0, 0, 0)" stroke="rgb(60, 60, 60)" stroke-width="1px" opacity="0.25"></line><line x1="0" y1="113.20909066633746" x2="278.4679985046387" y2="113.20909066633746" fill="rgb(0, 0, 0)" stroke="rgb(60, 60, 60)" stroke-width="1px" opacity="0.25"></line><line x1="0" y1="97.03636342828923" x2="278.4679985046387" y2="97.03636342828923" fill="rgb(0, 0, 0)" stroke="rgb(60, 60, 60)" stroke-width="1px" opacity="0.25"></line><line x1="0" y1="80.86363619024102" x2="278.4679985046387" y2="80.86363619024102" fill="rgb(0, 0, 0)" stroke="rgb(60, 60, 60)" stroke-width="1px" opacity="0.25"></line><line x1="0" y1="64.69090895219284" x2="278.4679985046387" y2="64.69090895219284" fill="rgb(0, 0, 0)" stroke="rgb(60, 60, 60)" stroke-width="1px" opacity="0.25"></line><line x1="0" y1="48.51818171414462" x2="278.4679985046387" y2="48.51818171414462" fill="rgb(0, 0, 0)" stroke="rgb(60, 60, 60)" stroke-width="1px" opacity="0.25"></line><line x1="0" y1="32.34545447609644" x2="278.4679985046387" y2="32.34545447609644" fill="rgb(0, 0, 0)" stroke="rgb(60, 60, 60)" stroke-width="1px" opacity="0.25"></line><line x1="0" y1="16.17272723804821" x2="278.4679985046387" y2="16.17272723804821" fill="rgb(0, 0, 0)" stroke="rgb(60, 60, 60)" stroke-width="1px" opacity="0.25"></line><line x1="0" y1="0" x2="278.4679985046387" y2="0" fill="rgb(0, 0, 0)" stroke="rgb(60, 60, 60)" stroke-width="1px" opacity="0.25"></line></g></g></g><g><g><line x1="0" y1="339.62727199901235" x2="278.4679985046387" y2="339.62727199901235" fill="rgb(0, 0, 0)" stroke="rgb(153, 153, 153)" stroke-width="1.5px"></line></g></g><g><g><line x1="23.205666542053223" y1="0" x2="23.205666542053223" y2="177.89999961853027" fill="rgb(0, 0, 0)" stroke="rgb(153, 153, 153)" stroke-width="1.5px"></line></g></g><g><g><g><g><g><path style="fill: none;" stroke="rgb(238, 51, 119)" stroke-width="2px" d="M23.205666542053223,16.09695922260928L25.52623319625854,17.231744308801826L27.846799850463867,17.653825310838105L30.16736650466919,19.104095897103925L32.48793315887451,20.219336147686327L34.808499813079834,21.55769697743321L37.129066467285156,23.315424975740317L39.44963312149048,25.16431365446729L41.7701997756958,26.58545849339853L44.09076642990112,28.901790954120234L46.411333084106445,33.45184058377908L48.73189973831177,38.61056174300078L51.05246639251708,41.71103810374802L53.37303304672242,41.124447287772064L55.693599700927734,42.43969604932193L58.01416635513306,43.80714870184561L60.33473300933838,46.05267795562002L62.6552996635437,47.344075393138915L64.97586631774902,48.01067363686838L67.29643297195435,48.96967544761979L69.61699962615967,50.460583156635266L71.937566280365,52.38909745432102L74.25813293457031,51.95304382473634L76.57869958877563,54.178089485788846L78.89926624298096,55.35070006440506L81.21983289718628,59.6876340790831L83.5403995513916,57.37272199773616L85.86096620559692,55.29732147972856L88.18153285980225,56.07094367113467L90.50209951400757,56.11206512824696L92.82266616821289,55.171773389934664L95.14323282241821,59.83096485339049L97.46379947662354,59.67625405837079L99.78436613082886,63.657055530120346L102.10493278503417,63.20444778569986L104.4254994392395,60.52358361633474L106.74606609344484,60.354996751984956L109.06663274765015,61.888158805190194L111.38719940185547,59.00769431748854L113.70776605606079,61.92718379323732L116.02833271026611,60.26495963582551L118.34889936447144,59.32159973157642L120.66946601867676,59.01652652103738L122.99003267288208,59.54385111826836L125.3105993270874,64.22353502013806L127.63116598129272,67.71316495885402L129.95173263549805,66.04249486801918L132.27229928970337,61.736268023024834L134.5928659439087,63.429179466056645L136.913432598114,63.95600863101093L139.23399925231934,66.90183079164372L141.55456590652466,62.743424699125846L143.87513256073,62.688650963772034L146.1956992149353,65.45540139745668L148.51626586914062,69.83197985944778L150.83683252334595,65.41957571070527L153.15739917755127,66.230385951785L155.4779658317566,70.12668727917664L157.7985324859619,75.12675948832512L160.11909914016724,74.37504831253968L162.43966579437256,68.69976103231231L164.76023244857788,70.67340827867024L167.0807991027832,70.39988941525523L169.4013657569885,71.38509213414554L171.72193241119385,68.07213663408342L174.04249906539917,68.30902794369317L176.3630657196045,71.51546033828637L178.68363237380984,66.81474288685776L181.00419902801514,69.86354581225648L183.32476568222046,71.11463856418419L185.64533233642578,70.76749471714274L187.9658989906311,73.30392308361743L190.28646564483643,78.60852044559397L192.60703229904175,75.88684129446517L194.92759895324707,79.32462269658448L197.2481656074524,75.89623500766747L199.56873226165771,78.38486688576022L201.88929891586304,78.26857141778935L204.20986557006833,78.95261841274801L206.53043222427368,79.66084382948814L208.850998878479,74.09028879281665L211.17156553268433,72.7920881421477L213.49213218688968,73.19967559412703L215.81269884109497,73.10700834224956L218.1332654953003,74.70362114488725L220.45383214950562,77.37698440776501L222.77439880371094,73.44517137243905L225.09496545791626,76.31905841174458L227.41553211212158,75.93579821320033L229.7360987663269,80.35907788804683L232.05666542053223,81.90460396968733L234.37723207473755,79.540695839635L236.69779872894287,81.36614743326624L239.01836538314816,81.99898286315523L241.33893203735352,78.73629776179477L243.65949869155884,79.19259783468367L245.98006534576416,81.30722832741294L248.3006319999695,84.2833819767572L250.6211986541748,79.402653283088L252.94176530838013,82.70405894608794L255.26233196258545,84.16266213976317L257.58289861679077,85.62869890003262" fill="none"></path></g><g><path style="fill: none;" stroke="rgb(51, 187, 238)" stroke-width="2px" d="M23.205666542053223,16.544221866417935L25.52623319625854,15.58937376727218L27.846799850463867,15.952759591045256L30.16736650466919,16.19590028904316L32.48793315887451,16.637053884168534L34.808499813079834,16.28171229682801L37.129066467285156,16.45258427604775L39.44963312149048,16.901821692451023L41.7701997756958,17.280215965998817L44.09076642990112,16.427862572846923L46.411333084106445,16.224462925302976L48.73189973831177,16.744615956490183L51.05246639251708,15.903126530815959L53.37303304672242,15.662808577817339L55.693599700927734,15.585075269374775L58.01416635513306,16.389830092833712L60.33473300933838,16.491828593265193L62.6552996635437,16.865983827112743L64.97586631774902,16.86156916617224L67.29643297195435,16.578803851745104L69.61699962615967,15.896524103281001L71.937566280365,16.78933632748657L74.25813293457031,16.780831689866094L76.57869958877563,16.626721669740874L78.89926624298096,16.291458468009093L81.21983289718628,16.32326603056347L83.5403995513916,16.445287175120463L85.86096620559692,16.46454058298634L88.18153285980225,17.09174556723858L90.50209951400757,16.903374857005822L92.82266616821289,16.162368554044136L95.14323282241821,16.458957311451396L97.46379947662354,16.692874776162547L99.78436613082886,17.02811678382362L102.10493278503417,16.62786057916031L104.4254994392395,18.805790080109738L106.74606609344484,22.33334879928756L109.06663274765015,25.76426822357576L111.38719940185547,31.21413455453987L113.70776605606079,37.601570795445916L116.02833271026611,43.50930498348705L118.34889936447144,44.95032462514707L120.66946601867676,46.821575225185065L122.99003267288208,47.762675141709515L125.3105993270874,51.421693130610876L127.63116598129272,51.33809456025014L129.95173263549805,50.47121404975429L132.27229928970337,53.59482166038017L134.5928659439087,50.73672805565597L136.913432598114,52.00480275046122L139.23399925231934,52.73170041171809L141.55456590652466,53.84403673526571L143.87513256073,53.73407025862313L146.1956992149353,53.59371818526942L148.51626586914062,54.89059013198897L150.83683252334595,56.335356159523705L153.15739917755127,57.1236561044639L155.4779658317566,55.521995988228426L157.7985324859619,57.29590523790575L160.11909914016724,57.24263207326168L162.43966579437256,55.815063744754845L164.76023244857788,59.51085790915537L167.0807991027832,58.92186398066504L169.4013657569885,57.73275219709718L171.72193241119385,60.21602445559536L174.04249906539917,61.629664548729934L176.3630657196045,57.6425999149237L178.68363237380984,58.20444230818446L181.00419902801514,57.112134970432386L183.32476568222046,57.04807269376867L185.64533233642578,58.77346074488812L187.9658989906311,58.605805960681174L190.28646564483643,58.854262648914975L192.60703229904175,59.07806359005925L194.92759895324707,63.11719246187168L197.2481656074524,63.09083728576645L199.56873226165771,59.73231670935467L201.88929891586304,59.788798302574705L204.20986557006833,57.90472694830219L206.53043222427368,57.35266593298257L208.850998878479,58.681092035103504L211.17156553268433,58.511610019123104L213.49213218688968,60.276906404009L215.81269884109497,58.28495059581849L218.1332654953003,61.7242193523454L220.45383214950562,64.6454205587294L222.77439880371094,63.790264029330906L225.09496545791626,62.03239994293539L227.41553211212158,60.85959906337277L229.7360987663269,62.548745724891525L232.05666542053223,63.207284668712845L234.37723207473755,61.88916403399628L236.69779872894287,63.23260531432656L239.01836538314816,64.94037501618523L241.33893203735352,65.12714669526918L243.65949869155884,65.3544464920024L245.98006534576416,66.07127491824173L248.3006319999695,68.06694353452237L250.6211986541748,68.25904773486519L252.94176530838013,68.50764653872884" fill="none"></path></g><g><path style="fill: none;" stroke="rgb(187, 187, 187)" stroke-width="2px" d="M23.205666542053223,19.30131005569986L25.52623319625854,24.86748777768418L27.846799850463867,31.48633709257509L30.16736650466919,38.98358130460371L32.48793315887451,50.999730559864126L34.808499813079834,63.37258071038202L37.129066467285156,79.91169816293389L39.44963312149048,93.96364421633493L41.7701997756958,105.21206596439866L44.09076642990112,114.80056284284042L46.411333084106445,129.27245134042263L48.73189973831177,131.2359600178286L51.05246639251708,132.3800218533432L53.37303304672242,136.49726261251288L55.693599700927734,132.860488221085L58.01416635513306,143.9044478214929L60.33473300933838,141.51222019663527L62.6552996635437,144.58794555950305L64.97586631774902,148.35094954891505L67.29643297195435,154.47114148737128L69.61699962615967,152.44709996948885L71.937566280365,150.80031497668864L74.25813293457031,150.0613495811198L76.57869958877563,152.04928674562493L78.89926624298096,154.2253257136089L81.21983289718628,150.43150607689861L83.5403995513916,153.94280567021647L85.86096620559692,149.26799840666806L88.18153285980225,153.32360566927045L90.50209951400757,150.17424164710155L92.82266616821289,155.7777767858186L95.14323282241821,153.6599839163285L97.46379947662354,156.93080866187358L99.78436613082886,152.93223052454744L102.10493278503417,151.940541140353L104.4254994392395,152.27271982183618L106.74606609344484,159.46779397396867L109.06663274765015,157.35391917391848L111.38719940185547,157.82962363893472L113.70776605606079,152.10036145859934L116.02833271026611,153.21780758848206L118.34889936447144,149.90017082501905L120.66946601867676,151.7840681759737L122.99003267288208,154.76964717463116L125.3105993270874,156.33224842853951L127.63116598129272,157.38460639990473L129.95173263549805,159.32059602932205L132.27229928970337,160.3448511212281L134.5928659439087,159.54158217384617L136.913432598114,159.85548187019518L139.23399925231934,166.22474889070227L141.55456590652466,158.14200868153463L143.87513256073,158.5869409338445L146.1956992149353,162.41431066446498L148.51626586914062,159.60222540509716L150.83683252334595,164.85644266849604L153.15739917755127,167.65129401136105L155.4779658317566,164.61865777132635L157.7985324859619,161.0644704585848L160.11909914016724,161.82699031886474L162.43966579437256,156.01726504469985L164.76023244857788,161.01792573831594L167.0807991027832,155.44970379291937L169.4013657569885,165.46316289799836L171.72193241119385,169.7123985950203L174.04249906539917,168.9770938574811L176.3630657196045,164.6242455143815L178.68363237380984,160.1284616598784L181.00419902801514,160.58661929766734L183.32476568222046,162.45293525133587L185.64533233642578,161.36259687639406L187.9658989906311,160.38816312968825L190.28646564483643,163.80302072136357L192.60703229904175,167.3482321211106L194.92759895324707,164.73866652952216L197.2481656074524,165.86489342936L199.56873226165771,168.86880909710172L201.88929891586304,170.25908074660376L204.20986557006833,167.63971060144712L206.53043222427368,163.15966094400443L208.850998878479,163.64247439717573L211.17156553268433,169.88375357738323L213.49213218688968,165.36242339505077L215.81269884109497,159.71207811975071L218.1332654953003,163.86140928720843L220.45383214950562,169.8225480758285L222.77439880371094,167.18995572650903L225.09496545791626,159.2924737458743L227.41553211212158,160.8828078415966L229.7360987663269,153.09439726933837L232.05666542053223,159.82431771730722L234.37723207473755,162.70747288971137L236.69779872894287,165.2229395736851L239.01836538314816,162.9019439700014L241.33893203735352,166.06210591594703L243.65949869155884,168.1462157264051L245.98006534576416,166.3429799583782L248.3006319999695,169.6736443286097L250.6211986541748,175.63220383708426L252.94176530838013,169.63702174595625" fill="none"></path></g></g></g></g><g opacity="0.2"><g><g><g><path style="fill: none;" stroke="rgb(238, 51, 119)" stroke-width="2px" d="M23.205666542053223,16.09695922260928L25.52623319625854,17.912615360517282L27.846799850463867,18.059023072792957L30.16736650466919,20.809614106552477L32.48793315887451,21.675393818846842L34.808499813079834,23.409131814871888L37.129066467285156,25.829004136967363L39.44963312149048,27.860011097382515L41.7701997756958,28.68137108764856L44.09076642990112,32.34127470364167L46.411333084106445,40.23564641300999L48.73189973831177,46.32056994909406L51.05246639251708,46.35162905160604L53.37303304672242,40.245710256282045L55.693599700927734,44.411023166100115L58.01416635513306,45.857363247074666L60.33473300933838,49.42002160355785L62.6552996635437,49.28084366374772L64.97586631774902,49.01046945292945L67.29643297195435,50.40809050718283L69.61699962615967,52.69686295523633L71.937566280365,55.281805442265195L74.25813293457031,51.298971989477586L76.57869958877563,57.515631619580546L78.89926624298096,57.10960759791533L81.21983289718628,66.19301660605764L83.5403995513916,53.90035979894141L85.86096620559692,52.18422388894582L88.18153285980225,57.23137624562841L90.50209951400757,56.173747291188235L92.82266616821289,53.76133609427723L95.14323282241821,66.81975112155112L97.46379947662354,59.444187884310566L99.78436613082886,69.628257452608L102.10493278503417,62.52553618852062L104.4254994392395,56.50228743141601L106.74606609344484,60.10211645806874L109.06663274765015,64.18790187076577L111.38719940185547,54.686997601979584L113.70776605606079,66.30641799710392L116.02833271026611,57.77162340304069L118.34889936447144,57.9065598763377L120.66946601867676,58.558916705449064L122.99003267288208,60.334838013886426L125.3105993270874,71.24306087172644L127.63116598129272,72.94760986638391L129.95173263549805,63.53648973192321L132.27229928970337,55.276927755775105L134.5928659439087,65.96854663054728L136.913432598114,64.74625237843178L139.23399925231934,71.32056403255713L141.55456590652466,56.50581556037921L143.87513256073,62.60649036074154L146.1956992149353,69.60552704797631L148.51626586914062,76.39684755242756L150.83683252334595,58.80096948759564L153.15739917755127,67.44660131340405L155.4779658317566,75.97113927026282L157.7985324859619,82.62686780204687L160.11909914016724,73.24748154886163L162.43966579437256,60.186830111971716L164.76023244857788,73.63387914820703L167.0807991027832,69.98961112013274L169.4013657569885,72.86289621248092L171.72193241119385,63.1027033839903L174.04249906539917,68.66436490810781L176.3630657196045,76.32510893017609L178.68363237380984,59.76366670971486L181.00419902801514,74.43675020035451L183.32476568222046,72.99127769207583L185.64533233642578,70.2467789465806L187.9658989906311,77.1085656333294L190.28646564483643,86.56541648855885L192.60703229904175,71.80432256777192L194.92759895324707,84.48129479976346L197.2481656074524,70.75365347429191L199.56873226165771,82.11781470289928L201.88929891586304,78.094128215833L204.20986557006833,79.978688905186L206.53043222427368,80.72318195459833L208.850998878479,65.73445623780944L211.17156553268433,70.8447871661443L213.49213218688968,73.81105677209607L215.81269884109497,72.96800746443338L218.1332654953003,77.09854034884385L220.45383214950562,81.38702930208163L222.77439880371094,67.54745181945013L225.09496545791626,80.6298889707029L227.41553211212158,75.36090791538403L229.7360987663269,86.99399740031657L232.05666542053223,84.22289309214814L234.37723207473755,75.99483364455658L236.69779872894287,84.10432482371314L239.01836538314816,82.94823600798881L241.33893203735352,73.842270109754L243.65949869155884,79.87704794401701L245.98006534576416,84.4791740665069L248.3006319999695,88.74761245077356L250.6211986541748,72.08156024258415L252.94176530838013,87.65616744058786L255.26233196258545,86.35056693027599L257.58289861679077,87.82775404043689" fill="none"></path></g><g><path style="fill: none;" stroke="rgb(51, 187, 238)" stroke-width="2px" d="M23.205666542053223,16.544221866417978L25.52623319625854,15.016464907784728L27.846799850463867,16.301609981867408L30.16736650466919,16.481833749888597L32.48793315887451,17.21302401796432L34.808499813079834,15.790146958564621L37.129066467285156,16.696933940283607L39.44963312149048,17.556814158246087L41.7701997756958,17.838274020178208L44.09076642990112,15.162217120690174L46.411333084106445,15.921208273820087L48.73189973831177,17.522014853445246L51.05246639251708,14.643640001281318L53.37303304672242,15.302802456206921L55.693599700927734,15.468566679297032L58.01416635513306,17.596394752570806L60.33473300933838,16.64478318156543L62.6552996635437,17.427121679910755L64.97586631774902,16.854947847290617L67.29643297195435,16.1546817259742L69.61699962615967,14.873141898427678L71.937566280365,18.128525285428427L74.25813293457031,16.768074901344594L76.57869958877563,16.395558465133057L78.89926624298096,15.788566048318833L81.21983289718628,16.370977238750193L83.5403995513916,16.62831857973723L85.86096620559692,16.49342066522671L88.18153285980225,18.032552465872435L90.50209951400757,16.62081889576629L92.82266616821289,15.050859345327483L95.14323282241821,16.90384038855098L97.46379947662354,17.04375094530427L99.78436613082886,17.53097977130253L102.10493278503417,16.027476289367034L104.4254994392395,22.07268427537368L106.74606609344484,27.624686823477205L109.06663274765015,30.91064732815892L111.38719940185547,39.38893402063143L113.70776605606079,47.18272513545902L116.02833271026611,52.37090625370291L118.34889936447144,47.1118540859034L120.66946601867676,49.6284511238913L122.99003267288208,49.17432501608863L125.3105993270874,56.91022011301214L127.63116598129272,51.21269670472204L129.95173263549805,49.17089328409165L132.27229928970337,58.28023307614374L134.5928659439087,46.44958764866591L136.913432598114,53.906914792643505L139.23399925231934,53.822046903594604L141.55456590652466,55.512541220579024L143.87513256073,53.569120543659835L146.1956992149353,53.38319007523917L148.51626586914062,56.835898052066284L150.83683252334595,58.502505200824544L153.15739917755127,58.30610602187378L155.4779658317566,53.119505813875676L157.7985324859619,59.95676911242134L160.11909914016724,57.162722326295565L162.43966579437256,53.673711251994774L164.76023244857788,65.054549155756L167.0807991027832,58.03837308792957L169.4013657569885,55.94908452174548L171.72193241119385,63.94093284334262L174.04249906539917,63.75012468843187L176.3630657196045,51.662002964214324L178.68363237380984,59.0472058980756L181.00419902801514,55.47367396380425L183.32476568222046,56.951979278773145L185.64533233642578,61.3615428215673L187.9658989906311,58.35432378437066L190.28646564483643,59.226947681265756L192.60703229904175,59.41376500177555L194.92759895324707,69.17588576959031L197.2481656074524,63.05130452160856L199.56873226165771,54.69453584473699L201.88929891586304,59.87352069240472L204.20986557006833,55.078619916893416L206.53043222427368,56.52457441000314L208.850998878479,60.67373118828486L211.17156553268433,58.25738699515259L213.49213218688968,62.92485098133782L215.81269884109497,55.29701688353273L218.1332654953003,66.88312248713581L220.45383214950562,69.02722236830539L222.77439880371094,62.50752923523309L225.09496545791626,59.39560381334208L227.41553211212158,59.1003977440288L229.7360987663269,65.08246571716965L232.05666542053223,64.19509308444484L234.37723207473755,59.91198308192142L236.69779872894287,65.24776723482195L239.01836538314816,67.50202956897326L241.33893203735352,65.40730421389506L243.65949869155884,65.69539618710223L245.98006534576416,67.14651755760067L248.3006319999695,71.0604464589433L250.6211986541748,68.54720403537944L252.94176530838013,68.88054474452433" fill="none"></path></g><g><path style="fill: none;" stroke="rgb(187, 187, 187)" stroke-width="2px" d="M23.205666542053223,19.30131005569986L25.52623319625854,28.207194410874784L27.846799850463867,37.84043243487035L30.16736650466919,47.80034049794929L32.48793315887451,66.6880150275322L34.808499813079834,80.48868669460242L37.129066467285156,103.56290074596225L39.44963312149048,114.4515164608757L41.7701997756958,121.8013031493524L44.09076642990112,129.0383632255463L46.411333084106445,150.84902512325388L48.73189973831177,134.17053770642374L51.05246639251708,134.09237904622285L53.37303304672242,142.66505764800553L55.693599700927734,127.40960152572102L58.01416635513306,160.46259816614318L60.33473300933838,137.92489106990678L62.6552996635437,149.20075267746824L64.97586631774902,153.99488227724987L67.29643297195435,163.6508699852704L69.61699962615967,149.41114869591235L71.937566280365,148.33019167564998L74.25813293457031,148.95291607734924L76.57869958877563,155.03116894337177L78.89926624298096,157.48936869923122L81.21983289718628,144.7407928007409L83.5403995513916,159.20974607573993L85.86096620559692,142.25579468827578L88.18153285980225,159.4070128273866L90.50209951400757,145.45019735445376L92.82266616821289,164.18307763570095L95.14323282241821,150.48329503346332L97.46379947662354,161.83704538972032L99.78436613082886,146.93436360496807L102.10493278503417,150.45300710668099L104.4254994392395,152.7709878354953L106.74606609344484,170.26040509084788L109.06663274765015,154.18310699346628L111.38719940185547,158.5431803338096L113.70776605606079,143.50646820724273L116.02833271026611,154.8939767810655L118.34889936447144,144.9237156838159L120.66946601867676,154.6099142010458L122.99003267288208,159.24801567132425L125.3105993270874,158.67615030899597L127.63116598129272,158.9631433567884L129.95173263549805,162.22458047326694L132.27229928970337,161.88123375902973L134.5928659439087,158.3366787528003L136.913432598114,160.3263314147125L139.23399925231934,175.77864942138564L141.55456590652466,146.0178983678419L143.87513256073,159.25433931230745L146.1956992149353,168.1553652603855L148.51626586914062,155.38409751604996L150.83683252334595,172.7377685635894L153.15739917755127,171.8435710256571L155.4779658317566,160.06970341127538L157.7985324859619,155.73318948947312L160.11909914016724,162.97077010928456L162.43966579437256,147.30267713345296L164.76023244857788,168.51891677873977L167.0807991027832,147.09737087482463L169.4013657569885,180.48335155561674L171.72193241119385,176.08625214055314L174.04249906539917,167.8741367511723L176.3630657196045,158.09497299973208L178.68363237380984,153.38478587812378L181.00419902801514,161.27385575435068L183.32476568222046,165.25240918183871L185.64533233642578,159.72708931398137L187.9658989906311,158.92651250962962L190.28646564483643,168.92530710887658L192.60703229904175,172.66604922073117L194.92759895324707,160.8243181421395L197.2481656074524,167.55423377911671L199.56873226165771,173.37468259871434L201.88929891586304,172.3444882208568L204.20986557006833,163.71065538371218L206.53043222427368,156.43958645784033L208.850998878479,164.36669457693264L211.17156553268433,179.24567234769452L213.49213218688968,158.58042812155213L215.81269884109497,151.23656020680053L218.1332654953003,170.08540603839515L220.45383214950562,178.76425625875856L222.77439880371094,163.24106720252985L225.09496545791626,147.44625077492213L227.41553211212158,163.26830898518006L229.7360987663269,141.41178141095102L232.05666542053223,169.91919838926046L234.37723207473755,167.0322056483176L236.69779872894287,168.99613959964572L239.01836538314816,159.4204505644759L241.33893203735352,170.80234883486543L243.65949869155884,171.2723804420923L245.98006534576416,163.6381263063378L248.3006319999695,174.66964088395693L250.6211986541748,184.5700430997961L252.94176530838013,160.64424860926425" fill="none"></path></g></g></g></g></g></g><g transform="translate(51, 177)" clip-path="url(#clip_1)"><clipPath id="clip_1"><rect width="278" height="22"></rect></clipPath><g><g><line x1="0" y1="0" x2="0" y2="5" style="visibility: inherit;" fill="rgb(0, 0, 0)" stroke="rgb(204, 204, 204)" stroke-width="1px"></line><line x1="23.205666542053223" y1="0" x2="23.205666542053223" y2="5" style="visibility: inherit;" fill="rgb(0, 0, 0)" stroke="rgb(204, 204, 204)" stroke-width="1px"></line><line x1="46.411333084106445" y1="0" x2="46.411333084106445" y2="5" style="visibility: inherit;" fill="rgb(0, 0, 0)" stroke="rgb(204, 204, 204)" stroke-width="1px"></line><line x1="69.61699962615967" y1="0" x2="69.61699962615967" y2="5" style="visibility: inherit;" fill="rgb(0, 0, 0)" stroke="rgb(204, 204, 204)" stroke-width="1px"></line><line x1="92.82266616821289" y1="0" x2="92.82266616821289" y2="5" style="visibility: inherit;" fill="rgb(0, 0, 0)" stroke="rgb(204, 204, 204)" stroke-width="1px"></line><line x1="116.02833271026611" y1="0" x2="116.02833271026611" y2="5" style="visibility: inherit;" fill="rgb(0, 0, 0)" stroke="rgb(204, 204, 204)" stroke-width="1px"></line><line x1="139.23399925231934" y1="0" x2="139.23399925231934" y2="5" style="visibility: inherit;" fill="rgb(0, 0, 0)" stroke="rgb(204, 204, 204)" stroke-width="1px"></line><line x1="162.43966579437256" y1="0" x2="162.43966579437256" y2="5" style="visibility: inherit;" fill="rgb(0, 0, 0)" stroke="rgb(204, 204, 204)" stroke-width="1px"></line><line x1="185.64533233642578" y1="0" x2="185.64533233642578" y2="5" style="visibility: inherit;" fill="rgb(0, 0, 0)" stroke="rgb(204, 204, 204)" stroke-width="1px"></line><line x1="208.850998878479" y1="0" x2="208.850998878479" y2="5" style="visibility: inherit;" fill="rgb(0, 0, 0)" stroke="rgb(204, 204, 204)" stroke-width="1px"></line><line x1="232.05666542053223" y1="0" x2="232.05666542053223" y2="5" style="visibility: inherit;" fill="rgb(0, 0, 0)" stroke="rgb(204, 204, 204)" stroke-width="1px"></line><line x1="255.26233196258545" y1="0" x2="255.26233196258545" y2="5" style="visibility: inherit;" fill="rgb(0, 0, 0)" stroke="rgb(204, 204, 204)" stroke-width="1px"></line><line x1="278.4679985046387" y1="0" x2="278.4679985046387" y2="5" style="visibility: inherit;" fill="rgb(0, 0, 0)" stroke="rgb(204, 204, 204)" stroke-width="1px"></line></g><g transform="translate(0, 8)"><text style="text-anchor: middle; visibility: hidden; font-family: Roboto, sans-serif; font-size: 12px; font-weight: 200;" x="0" y="0" dx="0em" dy="0.95em" fill="rgb(50, 49, 63)" stroke="none" stroke-width="1px">-10</text><text style="text-anchor: middle; visibility: inherit; font-family: Roboto, sans-serif; font-size: 12px; font-weight: 200;" x="23.205666542053223" y="0" dx="0em" dy="0.95em" fill="rgb(50, 49, 63)" stroke="none" stroke-width="1px">0</text><text style="text-anchor: middle; visibility: hidden; font-family: Roboto, sans-serif; font-size: 12px; font-weight: 200;" x="46.411333084106445" y="0" dx="0em" dy="0.95em" fill="rgb(50, 49, 63)" stroke="none" stroke-width="1px">10</text><text style="text-anchor: middle; visibility: inherit; font-family: Roboto, sans-serif; font-size: 12px; font-weight: 200;" x="69.61699962615967" y="0" dx="0em" dy="0.95em" fill="rgb(50, 49, 63)" stroke="none" stroke-width="1px">20</text><text style="text-anchor: middle; visibility: hidden; font-family: Roboto, sans-serif; font-size: 12px; font-weight: 200;" x="92.82266616821289" y="0" dx="0em" dy="0.95em" fill="rgb(50, 49, 63)" stroke="none" stroke-width="1px">30</text><text style="text-anchor: middle; visibility: inherit; font-family: Roboto, sans-serif; font-size: 12px; font-weight: 200;" x="116.02833271026611" y="0" dx="0em" dy="0.95em" fill="rgb(50, 49, 63)" stroke="none" stroke-width="1px">40</text><text style="text-anchor: middle; visibility: hidden; font-family: Roboto, sans-serif; font-size: 12px; font-weight: 200;" x="139.23399925231934" y="0" dx="0em" dy="0.95em" fill="rgb(50, 49, 63)" stroke="none" stroke-width="1px">50</text><text style="text-anchor: middle; visibility: inherit; font-family: Roboto, sans-serif; font-size: 12px; font-weight: 200;" x="162.43966579437256" y="0" dx="0em" dy="0.95em" fill="rgb(50, 49, 63)" stroke="none" stroke-width="1px">60</text><text style="text-anchor: middle; visibility: hidden; font-family: Roboto, sans-serif; font-size: 12px; font-weight: 200;" x="185.64533233642578" y="0" dx="0em" dy="0.95em" fill="rgb(50, 49, 63)" stroke="none" stroke-width="1px">70</text><text style="text-anchor: middle; visibility: inherit; font-family: Roboto, sans-serif; font-size: 12px; font-weight: 200;" x="208.850998878479" y="0" dx="0em" dy="0.95em" fill="rgb(50, 49, 63)" stroke="none" stroke-width="1px">80</text><text style="text-anchor: middle; visibility: hidden; font-family: Roboto, sans-serif; font-size: 12px; font-weight: 200;" x="232.05666542053223" y="0" dx="0em" dy="0.95em" fill="rgb(50, 49, 63)" stroke="none" stroke-width="1px">90</text><text style="text-anchor: middle; visibility: inherit; font-family: Roboto, sans-serif; font-size: 12px; font-weight: 200;" x="255.26233196258545" y="0" dx="0em" dy="0.95em" fill="rgb(50, 49, 63)" stroke="none" stroke-width="1px">100</text><text style="text-anchor: middle; visibility: hidden; font-family: Roboto, sans-serif; font-size: 12px; font-weight: 200;" x="278.4679985046387" y="0" dx="0em" dy="0.95em" fill="rgb(50, 49, 63)" stroke="none" stroke-width="1px">110</text></g><line x1="0" y1="0" x2="278.4679985046387" y2="0" fill="rgb(0, 0, 0)" stroke="rgb(204, 204, 204)" stroke-width="1px"></line></g></g></g></g></svg>