<svg viewBox="0 0 330 200" xmlns="http://www.w3.org/2000/svg"><g><g><g><g><g><line x1="51.53200149536133" y1="177.89999961853027" x2="46.53200149536133" y2="177.89999961853027" style="visibility: inherit;" fill="rgb(0, 0, 0)" stroke="rgb(204, 204, 204)" stroke-width="1px"></line><line x1="51.53200149536133" y1="158.13333299424912" x2="46.53200149536133" y2="158.13333299424912" style="visibility: inherit;" fill="rgb(0, 0, 0)" stroke="rgb(204, 204, 204)" stroke-width="1px"></line><line x1="51.53200149536133" y1="138.36666636996796" x2="46.53200149536133" y2="138.36666636996796" style="visibility: inherit;" fill="rgb(0, 0, 0)" stroke="rgb(204, 204, 204)" stroke-width="1px"></line><line x1="51.53200149536133" y1="118.59999974568682" x2="46.53200149536133" y2="118.59999974568682" style="visibility: inherit;" fill="rgb(0, 0, 0)" stroke="rgb(204, 204, 204)" stroke-width="1px"></line><line x1="51.53200149536133" y1="98.83333312140567" x2="46.53200149536133" y2="98.83333312140567" style="visibility: inherit;" fill="rgb(0, 0, 0)" stroke="rgb(204, 204, 204)" stroke-width="1px"></line><line x1="51.53200149536133" y1="79.06666649712461" x2="46.53200149536133" y2="79.06666649712461" style="visibility: inherit;" fill="rgb(0, 0, 0)" stroke="rgb(204, 204, 204)" stroke-width="1px"></line><line x1="51.53200149536133" y1="59.29999987284347" x2="46.53200149536133" y2="59.29999987284347" style="visibility: inherit;" fill="rgb(0, 0, 0)" stroke="rgb(204, 204, 204)" stroke-width="1px"></line><line x1="51.53200149536133" y1="39.5333332485623" x2="46.53200149536133" y2="39.5333332485623" style="visibility: inherit;" fill="rgb(0, 0, 0)" stroke="rgb(204, 204, 204)" stroke-width="1px"></line><line x1="51.53200149536133" y1="19.76666662428115" x2="46.53200149536133" y2="19.76666662428115" style="visibility: inherit;" fill="rgb(0, 0, 0)" stroke="rgb(204, 204, 204)" stroke-width="1px"></line><line x1="51.53200149536133" y1="0" x2="46.53200149536133" y2="0" style="visibility: inherit;" fill="rgb(0, 0, 0)" stroke="rgb(204, 204, 204)" stroke-width="1px"></line></g><g transform="translate(41.53200149536133, 0)"><text style="text-anchor: end; visibility: hidden; font-family: Roboto, sans-serif; font-size: 12px; font-weight: 200;" x="0" y="177.89999961853027" dx="0em" dy="0.3em" fill="rgb(50, 49, 63)" stroke="none" stroke-width="1px">0.48</text><text style="text-anchor: end; visibility: inherit; font-family: Roboto, sans-serif; font-size: 12px; font-weight: 200;" x="0" y="158.13333299424912" dx="0em" dy="0.3em" fill="rgb(50, 49, 63)" stroke="none" stroke-width="1px">0.5</text><text style="text-anchor: end; visibility: hidden; font-family: Roboto, sans-serif; font-size: 12px; font-weight: 200;" x="0" y="138.36666636996796" dx="0em" dy="0.3em" fill="rgb(50, 49, 63)" stroke="none" stroke-width="1px">0.52</text><text style="text-anchor: end; visibility: inherit; font-family: Roboto, sans-serif; font-size: 12px; font-weight: 200;" x="0" y="118.59999974568682" dx="0em" dy="0.3em" fill="rgb(50, 49, 63)" stroke="none" stroke-width="1px">0.54</text><text style="text-anchor: end; visibility: hidden; font-family: Roboto, sans-serif; font-size: 12px; font-weight: 200;" x="0" y="98.83333312140567" dx="0em" dy="0.3em" fill="rgb(50, 49, 63)" stroke="none" stroke-width="1px">0.56</text><text style="text-anchor: end; visibility: inherit; font-family: Roboto, sans-serif; font-size: 12px; font-weight: 200;" x="0" y="79.06666649712461" dx="0em" dy="0.3em" fill="rgb(50, 49, 63)" stroke="none" stroke-width="1px">0.58</text><text style="text-anchor: end; visibility: hidden; font-family: Roboto, sans-serif; font-size: 12px; font-weight: 200;" x="0" y="59.29999987284347" dx="0em" dy="0.3em" fill="rgb(50, 49, 63)" stroke="none" stroke-width="1px">0.6</text><text style="text-anchor: end; visibility: inherit; font-family: Roboto, sans-serif; font-size: 12px; font-weight: 200;" x="0" y="39.5333332485623" dx="0em" dy="0.3em" fill="rgb(50, 49, 63)" stroke="none" stroke-width="1px">0.62</text><text style="text-anchor: end; visibility: hidden; font-family: Roboto, sans-serif; font-size: 12px; font-weight: 200;" x="0" y="19.76666662428115" dx="0em" dy="0.3em" fill="rgb(50, 49, 63)" stroke="none" stroke-width="1px">0.64</text><text style="text-anchor: end; visibility: hidden; font-family: Roboto, sans-serif; font-size: 12px; font-weight: 200;" x="0" y="0" dx="0em" dy="0.3em" fill="rgb(50, 49, 63)" stroke="none" stroke-width="1px">0.66</text></g><line x1="51.53200149536133" y1="0" x2="51.53200149536133" y2="177.89999961853027" fill="rgb(0, 0, 0)" stroke="rgb(204, 204, 204)" stroke-width="1px"></line></g></g><g transform="translate(51, 0)" clip-path="url(#clip_0)"><clipPath id="clip_0"><rect width="278" height="177"></rect></clipPath><g><g><g><line x1="0" y1="0" x2="0" y2="177.89999961853027" fill="rgb(0, 0, 0)" stroke="rgb(60, 60, 60)" stroke-width="1px" opacity="0.25"></line><line x1="23.205666542053223" y1="0" x2="23.205666542053223" y2="177.89999961853027" fill="rgb(0, 0, 0)" stroke="rgb(60, 60, 60)" stroke-width="1px" opacity="0.25"></line><line x1="46.411333084106445" y1="0" x2="46.411333084106445" y2="177.89999961853027" fill="rgb(0, 0, 0)" stroke="rgb(60, 60, 60)" stroke-width="1px" opacity="0.25"></line><line x1="69.61699962615967" y1="0" x2="69.61699962615967" y2="177.89999961853027" fill="rgb(0, 0, 0)" stroke="rgb(60, 60, 60)" stroke-width="1px" opacity="0.25"></line><line x1="92.82266616821289" y1="0" x2="92.82266616821289" y2="177.89999961853027" fill="rgb(0, 0, 0)" stroke="rgb(60, 60, 60)" stroke-width="1px" opacity="0.25"></line><line x1="116.02833271026611" y1="0" x2="116.02833271026611" y2="177.89999961853027" fill="rgb(0, 0, 0)" stroke="rgb(60, 60, 60)" stroke-width="1px" opacity="0.25"></line><line x1="139.23399925231934" y1="0" x2="139.23399925231934" y2="177.89999961853027" fill="rgb(0, 0, 0)" stroke="rgb(60, 60, 60)" stroke-width="1px" opacity="0.25"></line><line x1="162.43966579437256" y1="0" x2="162.43966579437256" y2="177.89999961853027" fill="rgb(0, 0, 0)" stroke="rgb(60, 60, 60)" stroke-width="1px" opacity="0.25"></line><line x1="185.64533233642578" y1="0" x2="185.64533233642578" y2="177.89999961853027" fill="rgb(0, 0, 0)" stroke="rgb(60, 60, 60)" stroke-width="1px" opacity="0.25"></line><line x1="208.850998878479" y1="0" x2="208.850998878479" y2="177.89999961853027" fill="rgb(0, 0, 0)" stroke="rgb(60, 60, 60)" stroke-width="1px" opacity="0.25"></line><line x1="232.05666542053223" y1="0" x2="232.05666542053223" y2="177.89999961853027" fill="rgb(0, 0, 0)" stroke="rgb(60, 60, 60)" stroke-width="1px" opacity="0.25"></line><line x1="255.26233196258545" y1="0" x2="255.26233196258545" y2="177.89999961853027" fill="rgb(0, 0, 0)" stroke="rgb(60, 60, 60)" stroke-width="1px" opacity="0.25"></line><line x1="278.4679985046387" y1="0" x2="278.4679985046387" y2="177.89999961853027" fill="rgb(0, 0, 0)" stroke="rgb(60, 60, 60)" stroke-width="1px" opacity="0.25"></line></g><g><line x1="0" y1="177.89999961853027" x2="278.4679985046387" y2="177.89999961853027" fill="rgb(0, 0, 0)" stroke="rgb(60, 60, 60)" stroke-width="1px" opacity="0.25"></line><line x1="0" y1="158.13333299424912" x2="278.4679985046387" y2="158.13333299424912" fill="rgb(0, 0, 0)" stroke="rgb(60, 60, 60)" stroke-width="1px" opacity="0.25"></line><line x1="0" y1="138.36666636996796" x2="278.4679985046387" y2="138.36666636996796" fill="rgb(0, 0, 0)" stroke="rgb(60, 60, 60)" stroke-width="1px" opacity="0.25"></line><line x1="0" y1="118.59999974568682" x2="278.4679985046387" y2="118.59999974568682" fill="rgb(0, 0, 0)" stroke="rgb(60, 60, 60)" stroke-width="1px" opacity="0.25"></line><line x1="0" y1="98.83333312140567" x2="278.4679985046387" y2="98.83333312140567" fill="rgb(0, 0, 0)" stroke="rgb(60, 60, 60)" stroke-width="1px" opacity="0.25"></line><line x1="0" y1="79.06666649712461" x2="278.4679985046387" y2="79.06666649712461" fill="rgb(0, 0, 0)" stroke="rgb(60, 60, 60)" stroke-width="1px" opacity="0.25"></line><line x1="0" y1="59.29999987284347" x2="278.4679985046387" y2="59.29999987284347" fill="rgb(0, 0, 0)" stroke="rgb(60, 60, 60)" stroke-width="1px" opacity="0.25"></line><line x1="0" y1="39.5333332485623" x2="278.4679985046387" y2="39.5333332485623" fill="rgb(0, 0, 0)" stroke="rgb(60, 60, 60)" stroke-width="1px" opacity="0.25"></line><line x1="0" y1="19.76666662428115" x2="278.4679985046387" y2="19.76666662428115" fill="rgb(0, 0, 0)" stroke="rgb(60, 60, 60)" stroke-width="1px" opacity="0.25"></line><line x1="0" y1="0" x2="278.4679985046387" y2="0" fill="rgb(0, 0, 0)" stroke="rgb(60, 60, 60)" stroke-width="1px" opacity="0.25"></line></g></g></g><g><g><line x1="0" y1="652.2999986012775" x2="278.4679985046387" y2="652.2999986012775" fill="rgb(0, 0, 0)" stroke="rgb(153, 153, 153)" stroke-width="1.5px"></line></g></g><g><g><line x1="23.205666542053223" y1="0" x2="23.205666542053223" y2="177.89999961853027" fill="rgb(0, 0, 0)" stroke="rgb(153, 153, 153)" stroke-width="1.5px"></line></g></g><g><g><g><g><g><path style="fill: none;" stroke="rgb(238, 51, 119)" stroke-width="2px" d="M23.205666542053223,108.18670697458313L25.52623319625854,133.81639429097888L27.846799850463867,136.70145637391906L30.16736650466919,135.236702977648L32.48793315887451,131.2731612412633L34.808499813079834,128.71057343733617L37.129066467285156,130.209622713291L39.44963312149048,127.34913799730941L41.7701997756958,125.74798337562997L44.09076642990112,120.36493616512433L46.411333084106445,115.19093073016204L48.73189973831177,108.9672983724092L51.05246639251708,106.72098827296702L53.37303304672242,108.4226775752879L55.693599700927734,110.42972505440623L58.01416635513306,112.61576169806868L60.33473300933838,112.7175185367425L62.6552996635437,109.25696202645311L64.97586631774902,109.23050170840973L67.29643297195435,111.27916516650431L69.61699962615967,109.67533054421853L71.937566280365,108.44647260930051L74.25813293457031,109.87867189105702L76.57869958877563,109.12692622364185L78.89926624298096,110.14739140208125L81.21983289718628,109.03282330697455L83.5403995513916,107.97952364259488L85.86096620559692,109.7346904808376L88.18153285980225,111.49170864858868L90.50209951400757,108.8336690034327L92.82266616821289,111.79330937462922L95.14323282241821,112.7482281282602L97.46379947662354,113.67428143587826L99.78436613082886,111.17007223450797L102.10493278503417,108.30080484336453L104.4254994392395,109.80848500331955L106.74606609344484,110.489591366418L109.06663274765015,109.81670478042032L111.38719940185547,110.99129321457832L113.70776605606079,111.23113441553298L116.02833271026611,106.58826140756914L118.34889936447144,109.0537087879743L120.66946601867676,107.31316216590342L122.99003267288208,105.62170422148229L125.3105993270874,106.1522313429366L127.63116598129272,108.15137010392033L129.95173263549805,105.63134642901527L132.27229928970337,107.15049626780294L134.5928659439087,106.87694399097447L136.913432598114,109.46001048545091L139.23399925231934,110.48447406336213L141.55456590652466,107.50015005519718L143.87513256073,110.55849442292438L146.1956992149353,110.9506248269004L148.51626586914062,109.24896669495881L150.83683252334595,109.99626276881862L153.15739917755127,111.70779626814802L155.4779658317566,107.08852327288243L157.7985324859619,106.38934001403506L160.11909914016724,105.56941205618514L162.43966579437256,109.12652416082139L164.76023244857788,108.16569905416658L167.0807991027832,104.78738546641678L169.4013657569885,107.0626110528379L171.72193241119385,106.67543164219978L174.04249906539917,111.13298421048444L176.3630657196045,111.62747265481916L178.68363237380984,108.19605803860297L181.00419902801514,108.36134005354303L183.32476568222046,107.95216950090925L185.64533233642578,109.5610834562716L187.9658989906311,107.0704613508944L190.28646564483643,109.89727060753384L192.60703229904175,105.01300363084331L194.92759895324707,105.18656071245707L197.2481656074524,104.77071473061943L199.56873226165771,107.74198830195887L201.88929891586304,111.68422442880993L204.20986557006833,111.74343363433056L206.53043222427368,109.52838989837464L208.850998878479,109.88134076628249L211.17156553268433,109.87606602006966L213.49213218688968,110.72439913855396L215.81269884109497,110.41510230074914L218.1332654953003,109.05951566042155L220.45383214950562,108.4570352530357L222.77439880371094,109.72085341272961L225.09496545791626,114.33093786762615L227.41553211212158,111.31080348706618L229.7360987663269,109.63419058641875L232.05666542053223,104.71987640010838L234.37723207473755,106.0023628084869L236.69779872894287,109.04191109503964L239.01836538314816,107.90059577356783L241.33893203735352,109.35343501218945L243.65949869155884,109.38167581182252L245.98006534576416,113.42872039015363L248.3006319999695,110.3314473282914L250.6211986541748,103.56165377860182L252.94176530838013,103.49474426638889L255.26233196258545,103.3645616504687L257.58289861679077,105.88680094530028" fill="none"></path></g><g><path style="fill: none;" stroke="rgb(51, 187, 238)" stroke-width="2px" d="M23.205666542053223,160.41477070425168L25.52623319625854,160.16350431346348L27.846799850463867,161.47421462120874L30.16736650466919,162.14750636871744L32.48793315887451,163.43630887712567L34.808499813079834,161.40092458065803L37.129066467285156,161.3363376918923L39.44963312149048,164.09171660231152L41.7701997756958,163.6493955807574L44.09076642990112,162.17601186993588L46.411333084106445,161.22954629044636L48.73189973831177,161.53480631963484L51.05246639251708,159.46205386549497L53.37303304672242,159.33891046005846L55.693599700927734,159.9884903436289L58.01416635513306,161.80165667183948L60.33473300933838,162.16508813763318L62.6552996635437,165.00511864024972L64.97586631774902,163.89679471010976L67.29643297195435,163.54924647745705L69.61699962615967,162.5254861409261L71.937566280365,162.9134335675083L74.25813293457031,164.09833303397264L76.57869958877563,162.74989537444387L78.89926624298096,161.91537621464622L81.21983289718628,159.97042086217036L83.5403995513916,161.1586914119376L85.86096620559692,161.86756465848487L88.18153285980225,162.36528783149632L90.50209951400757,163.1645561593768L92.82266616821289,160.45738501049388L95.14323282241821,162.9912988328712L97.46379947662354,163.55266315467276L99.78436613082886,164.64531108489146L102.10493278503417,157.27221594042854L104.4254994392395,144.6283731839525L106.74606609344484,121.94093865637994L109.06663274765015,99.8312418042694L111.38719940185547,81.7724487565254L113.70776605606079,61.782886457228884L116.02833271026611,49.32034922616238L118.34889936447144,44.087646610772474L120.66946601867676,42.35960866282761L122.99003267288208,38.92171526458861L125.3105993270874,31.818184784279794L127.63116598129272,29.731538234985777L129.95173263549805,32.03182563777089L132.27229928970337,29.927138501019183L134.5928659439087,33.11494415868278L136.913432598114,31.82458986103219L139.23399925231934,27.48966614466551L141.55456590652466,27.750358680162012L143.87513256073,29.84029383887509L146.1956992149353,31.523090762280493L148.51626586914062,29.232884405408875L150.83683252334595,24.557792150042776L153.15739917755127,22.553949821153235L155.4779658317566,23.90067154339491L157.7985324859619,20.038967764306513L160.11909914016724,18.834199398811528L162.43966579437256,17.82697161351262L164.76023244857788,15.612715636169145L167.0807991027832,16.68723559388094L169.4013657569885,17.66127387954889L171.72193241119385,13.61274297866681L174.04249906539917,13.425027416996741L176.3630657196045,17.554972087150563L178.68363237380984,15.723208328962563L181.00419902801514,14.694087144110586L183.32476568222046,15.399339329019254L185.64533233642578,16.943580930491198L187.9658989906311,14.456452259396759L190.28646564483643,14.969351914521225L192.60703229904175,12.926847985269559L194.92759895324707,13.4476987733879L197.2481656074524,11.847826250303628L199.56873226165771,15.453794310423108L201.88929891586304,16.07091289210769L204.20986557006833,17.330596005217153L206.53043222427368,20.293759301322897L208.850998878479,14.961357071200228L211.17156553268433,9.692174329534533L213.49213218688968,11.215388011981096L215.81269884109497,10.39337823243967L218.1332654953003,11.72628864453373L220.45383214950562,7.269750387998165L222.77439880371094,10.247746508731607L225.09496545791626,10.187267696192928L227.41553211212158,8.039413432517767L229.7360987663269,7.7162707260247565L232.05666542053223,5.192736056094029L234.37723207473755,7.0485310899193765L236.69779872894287,8.12513091525338L239.01836538314816,4.5390026510664265L241.33893203735352,3.870684350707203L243.65949869155884,6.913717051740958L245.98006534576416,8.022893777563533L248.3006319999695,6.544456309188255L250.6211986541748,2.8511217645674365L252.94176530838013,0.9599466815915456" fill="none"></path></g><g><path style="fill: none;" stroke="rgb(187, 187, 187)" stroke-width="2px" d="M23.205666542053223,126.34477857280054L25.52623319625854,134.53592668483859L27.846799850463867,138.22229742948304L30.16736650466919,137.60605192500458L32.48793315887451,137.52002204087896L34.808499813079834,133.95521136111267L37.129066467285156,129.86453388154584L39.44963312149048,122.65125140010099L41.7701997756958,111.37274443340854L44.09076642990112,97.48546689629292L46.411333084106445,92.83262452116134L48.73189973831177,79.88423782573946L51.05246639251708,72.52080829724905L53.37303304672242,72.03399964019313L55.693599700927734,67.88593644236725L58.01416635513306,72.74169036538085L60.33473300933838,70.04157285664915L62.6552996635437,68.69278142698619L64.97586631774902,70.1518331153124L67.29643297195435,70.18364294794164L69.61699962615967,68.86319646568252L71.937566280365,68.11432846311618L74.25813293457031,68.43220706610046L76.57869958877563,69.6958166594658L78.89926624298096,69.6010172427145L81.21983289718628,67.04079639516506L83.5403995513916,70.489361048212L85.86096620559692,67.54642421577954L88.18153285980225,70.65733832066459L90.50209951400757,72.16126414666876L92.82266616821289,71.33684749183782L95.14323282241821,69.6599358117067L97.46379947662354,71.88675263823843L99.78436613082886,67.90870911955656L102.10493278503417,68.65114287365598L104.4254994392395,70.57098402052156L106.74606609344484,75.60929735858699L109.06663274765015,72.2522478250398L111.38719940185547,70.72677643850709L113.70776605606079,68.64120230511917L116.02833271026611,70.09504160740669L118.34889936447144,69.7058623553148L120.66946601867676,73.89295258764864L122.99003267288208,75.59461534807166L125.3105993270874,72.91165811635662L127.63116598129272,73.0781863896095L129.95173263549805,73.09275562182626L132.27229928970337,74.10441548190889L134.5928659439087,72.85607612656527L136.913432598114,72.96415507716434L139.23399925231934,73.88822930827453L141.55456590652466,69.83295378565217L143.87513256073,70.47204761346565L146.1956992149353,70.81883878851754L148.51626586914062,70.27221521864631L150.83683252334595,74.24289669666591L153.15739917755127,73.8829147183086L155.4779658317566,70.4703914210853L157.7985324859619,70.6798795928981L160.11909914016724,71.43474692580176L162.43966579437256,68.78637770225775L164.76023244857788,72.6474285641674L167.0807991027832,70.18564647133284L169.4013657569885,75.96219186415608L171.72193241119385,76.42659819443355L174.04249906539917,73.5588514420577L176.3630657196045,72.43742835412496L178.68363237380984,70.74179197913166L181.00419902801514,74.27510313976703L183.32476568222046,73.16337511758347L185.64533233642578,69.18511965229062L187.9658989906311,69.86321502141664L190.28646564483643,74.0090899201291L192.60703229904175,75.47058054612972L194.92759895324707,71.4360216454548L197.2481656074524,73.40607600313643L199.56873226165771,75.41279109011347L201.88929891586304,75.31278126284039L204.20986557006833,74.29507579151644L206.53043222427368,73.63798488670054L208.850998878479,73.8759444912947L211.17156553268433,75.55648750208628L213.49213218688968,74.52667083049202L215.81269884109497,75.19194226626912L218.1332654953003,75.16085547738479L220.45383214950562,78.213873452857L222.77439880371094,75.16573563257656L225.09496545791626,76.55947206967257L227.41553211212158,80.41912551729487L229.7360987663269,73.468585694651L232.05666542053223,75.4757692678038L234.37723207473755,76.42655753272504L236.69779872894287,77.81869681008084L239.01836538314816,73.7979253656211L241.33893203735352,76.99953826682186L243.65949869155884,77.06154192594963L245.98006534576416,74.42376901011458L248.3006319999695,80.32024810912122L250.6211986541748,80.5816026871386L252.94176530838013,76.5378790726788" fill="none"></path></g></g></g></g><g opacity="0.2"><g><g><g><path style="fill: none;" stroke="rgb(238, 51, 119)" stroke-width="2px" d="M23.205666542053223,108.18670697458313L25.52623319625854,149.1942066808163L27.846799850463867,139.4711159735415L30.16736650466919,133.5141529836332L32.48793315887451,126.09836115023957L34.808499813079834,125.16559197289553L37.129066467285156,132.35328716269464L39.44963312149048,123.17852382075507L41.7701997756958,123.38659131692653L44.09076642990112,112.3717384193776L46.411333084106445,107.47685042620648L48.73189973831177,99.66571856823559L51.05246639251708,103.35885771602219L53.37303304672242,110.971877742276L55.693599700927734,113.43793706411361L58.01416635513306,115.89327490115416L60.33473300933838,112.87011073466942L62.6552996635437,104.06700589594216L64.97586631774902,109.19081526230761L67.29643297195435,114.35197309769137L69.61699962615967,107.26966656889189L71.937566280365,106.60322614301762L74.25813293457031,112.02694253741507L76.57869958877563,107.99931662766312L78.89926624298096,111.6780819167108L81.21983289718628,107.36097591743828L83.5403995513916,106.39957684113067L85.86096620559692,112.36743804360735L88.18153285980225,114.12723428175305L90.50209951400757,104.8466110047568L92.82266616821289,116.23276894997528L95.14323282241821,114.1806060687098L97.46379947662354,115.06336128675329L99.78436613082886,107.4137586118238L102.10493278503417,103.99690387996138L104.4254994392395,112.07000520437468L106.74606609344484,111.51125090052801L109.06663274765015,108.80737490766997L111.38719940185547,112.75317585927294L113.70776605606079,111.59089621616332L116.02833271026611,99.62395190493275L118.34889936447144,112.75187985561615L120.66946601867676,104.70234223405353L122.99003267288208,103.08451730558318L125.3105993270874,106.94802202498018L127.63116598129272,111.15007824508425L129.95173263549805,101.851310916893L132.27229928970337,109.42922102589932L134.5928659439087,106.46661557574085L136.913432598114,113.3346102271134L139.23399925231934,112.02116943021664L141.55456590652466,103.02366404297132L143.87513256073,115.14601097450205L146.1956992149353,111.5388204328633L148.51626586914062,106.6964794970492L150.83683252334595,111.11720687960755L153.15739917755127,114.27509651714104L155.4779658317566,100.15961377998579L157.7985324859619,105.34056512576413L160.11909914016724,104.33952011941024L162.43966579437256,114.4621923177754L164.76023244857788,106.72446139418437L167.0807991027832,99.71991508479213L169.4013657569885,110.47544943246939L171.72193241119385,106.0946625262429L174.04249906539917,117.81931306291135L176.3630657196045,112.36920532132118L178.68363237380984,103.04893611427865L181.00419902801514,108.6092630759529L183.32476568222046,107.33841367195876L185.64533233642578,111.97445438931518L187.9658989906311,103.33452819282886L190.28646564483643,114.13748449249309L192.60703229904175,97.68660316580721L194.92759895324707,105.44689633487778L197.2481656074524,104.14694575786307L199.56873226165771,112.19889865896789L201.88929891586304,117.59757861908648L204.20986557006833,111.83224744261136L206.53043222427368,106.20582429444099L208.850998878479,110.41076706814428L211.17156553268433,109.8681539007503L213.49213218688968,111.99689881628046L215.81269884109497,109.95115704404182L218.1332654953003,107.02613569993017L220.45383214950562,107.55331464195692L222.77439880371094,111.61658065227053L225.09496545791626,121.24606454997107L227.41553211212158,106.78060191622612L229.7360987663269,107.11927123544747L232.05666542053223,97.34840512064288L234.37723207473755,107.92609242105463L236.69779872894287,113.6012335248688L239.01836538314816,106.18862279135996L241.33893203735352,111.53269387012213L243.65949869155884,109.42403701127219L245.98006534576416,119.49928725765037L248.3006319999695,105.68553773549802L250.6211986541748,93.40696345406727L252.94176530838013,103.39437999806958L255.26233196258545,103.16928772658848L257.58289861679077,109.6701598875475" fill="none"></path></g><g><path style="fill: none;" stroke="rgb(51, 187, 238)" stroke-width="2px" d="M23.205666542053223,160.41477070425168L25.52623319625854,160.01274447899056L27.846799850463867,162.73249651664423L30.16736650466919,162.93929746378748L32.48793315887451,165.11896943210368L34.808499813079834,158.58525536029654L37.129066467285156,161.243977407567L39.44963312149048,168.10908550534032L41.7701997756958,162.9970579904002L44.09076642990112,159.98820877339728L46.411333084106445,159.81843229435816L48.73189973831177,161.99103515181912L51.05246639251708,156.35969308067865L53.37303304672242,159.15443660265464L55.693599700927734,160.96209661221576L58.01416635513306,164.5201273787823L60.33473300933838,162.71008154430754L62.6552996635437,169.2644433107376L64.97586631774902,162.2344776568952L67.29643297195435,163.02795589576317L69.61699962615967,160.98990178157956L71.937566280365,163.49534194180634L74.25813293457031,165.87565883989606L76.57869958877563,160.7272548586802L78.89926624298096,160.6636034063548L81.21983289718628,157.05299612780271L83.5403995513916,162.94109419612988L85.86096620559692,162.9308734400184L88.18153285980225,163.11187213254013L90.50209951400757,164.36345820945385L92.82266616821289,156.3966291848971L95.14323282241821,166.7921690622731L97.46379947662354,164.39470957035957L99.78436613082886,166.28428290195535L102.10493278503417,146.2125735406059L104.4254994392395,125.66260937527343L106.74606609344484,87.90978721603287L109.06663274765015,66.66669673134773L111.38719940185547,54.684259285492864L113.70776605606079,31.798543075087032L116.02833271026611,30.626543404551487L118.34889936447144,36.238592693982966L120.66946601867676,39.76755174215746L122.99003267288208,33.76487516871889L125.3105993270874,21.162889065662622L127.63116598129272,26.601568411370224L129.95173263549805,35.48225674173336L132.27229928970337,26.770107796009707L134.5928659439087,37.896652645070844L136.913432598114,29.889058414582426L139.23399925231934,20.987280570167943L141.55456590652466,28.141397483404848L143.87513256073,32.97519657693558L146.1956992149353,34.047286147384256L148.51626586914062,25.79757487010513L150.83683252334595,17.545153766998187L153.15739917755127,19.54818632781998L155.4779658317566,25.920754126757057L157.7985324859619,14.246412095674799L160.11909914016724,17.02704685056892L162.43966579437256,16.316129935564L164.76023244857788,12.29133167015413L167.0807991027832,18.299015530448465L169.4013657569885,19.122331308051113L171.72193241119385,7.539946627343621L174.04249906539917,13.143454074491725L176.3630657196045,23.749889092381313L178.68363237380984,12.975562691680665L181.00419902801514,13.150405366832679L183.32476568222046,16.457217606382432L185.64533233642578,19.25994333269907L187.9658989906311,10.725759252755159L190.28646564483643,15.738701397208157L192.60703229904175,9.863092091391872L194.92759895324707,14.228974955565283L197.2481656074524,9.448017465677202L199.56873226165771,20.86274640060212L201.88929891586304,16.996590764634423L204.20986557006833,19.22012067488142L206.53043222427368,24.73850424548145L208.850998878479,6.962753726016302L211.17156553268433,1.7884002170361506L213.49213218688968,13.50020853565097L215.81269884109497,9.16036356312756L218.1332654953003,13.72565426267483L220.45383214950562,0.5849430031949567L222.77439880371094,14.714740689831997L225.09496545791626,10.096549477384947L227.41553211212158,4.817632037004927L229.7360987663269,7.2315566662854L232.05666542053223,1.4074340511978287L234.37723207473755,9.832223640657476L236.69779872894287,9.740030653254207L239.01836538314816,-0.8401897452140046L241.33893203735352,2.868206900168428L243.65949869155884,11.47826610329152L245.98006534576416,9.686658866297417L248.3006319999695,4.326800106625315L250.6211986541748,-2.6888800523638596" fill="none"></path></g><g><path style="fill: none;" stroke="rgb(187, 187, 187)" stroke-width="2px" d="M23.205666542053223,126.34477857280054L25.52623319625854,139.45061555206138L27.846799850463867,141.76121334434166L30.16736650466919,136.88134721173782L32.48793315887451,137.40770142416483L34.808499813079834,129.0237948591511L37.129066467285156,124.0147996349256L39.44963312149048,112.13421629464278L41.7701997756958,94.73913739473032L44.09076642990112,76.86447823254943L46.411333084106445,85.89556189635701L48.73189973831177,60.53212233120248L51.05246639251708,61.4997068795084L53.37303304672242,71.30474036344647L55.693599700927734,61.668717538204895L58.01416635513306,80.02189659602588L60.33473300933838,65.99253919278985L62.6552996635437,66.66993674048969L64.97586631774902,72.34018837596234L67.29643297195435,70.231354789341L69.61699962615967,66.88259915871704L71.937566280365,66.99105110108728L74.25813293457031,68.90901869461814L76.57869958877563,71.59121608085357L78.89926624298096,69.45881879138156L81.21983289718628,63.200476042013136L83.5403995513916,75.66219920385076L85.86096620559692,63.13202348523193L88.18153285980225,75.3237066124008L90.50209951400757,74.41715205447812L92.82266616821289,70.10022278297699L95.14323282241821,67.14456862515945L97.46379947662354,75.22697761219877L99.78436613082886,61.94164412647285L102.10493278503417,69.7647934728976L104.4254994392395,73.45074569131472L106.74606609344484,83.16676728773436L109.06663274765015,67.21667355588252L111.38719940185547,68.43856936720438L113.70776605606079,65.51284111200721L116.02833271026611,72.27580055792286L118.34889936447144,69.12209347764538L120.66946601867676,80.17358793312712L122.99003267288208,78.14710948796889L125.3105993270874,68.88722226948126L127.63116598129272,73.32797879946271L129.95173263549805,73.11460947014982L132.27229928970337,75.6219052719761L134.5928659439087,70.98356709359173L136.913432598114,73.1262735030609L139.23399925231934,75.27434065492862L141.55456590652466,63.750040501748046L143.87513256073,71.43068835518334L146.1956992149353,71.33902555109418L148.51626586914062,69.4522798638405L150.83683252334595,80.19891891369159L153.15739917755127,73.3429417507729L155.4779658317566,65.35160647525144L157.7985324859619,70.99411185061741L160.11909914016724,72.56704792515723L162.43966579437256,64.81382386694186L164.76023244857788,78.43900485703166L167.0807991027832,66.4929733320811L169.4013657569885,84.6270099533908L171.72193241119385,77.12320768984986L174.04249906539917,69.25723131349402L176.3630657196045,70.75529372222579L178.68363237380984,68.19833741664172L181.00419902801514,79.57506988071994L183.32476568222046,71.49578308430833L185.64533233642578,63.217736454351254L187.9658989906311,70.88035807510578L190.28646564483643,80.22790226819794L192.60703229904175,77.66281648513036L194.92759895324707,65.38418329444251L197.2481656074524,76.36115753965898L199.56873226165771,78.42286372057895L201.88929891586304,75.16276652193066L204.20986557006833,72.76851758453051L206.53043222427368,72.65234852947667L208.850998878479,74.23288389818583L211.17156553268433,78.07730201827378L213.49213218688968,72.98194582310052L215.81269884109497,76.18984941993456L218.1332654953003,75.11422529405827L220.45383214950562,82.79340041606538L222.77439880371094,70.59352890215591L225.09496545791626,78.65007672531661L227.41553211212158,86.20860568872824L229.7360987663269,63.04277596068498L232.05666542053223,78.48654462753291L234.37723207473755,77.85273993010682L236.69779872894287,79.90690572611459L239.01836538314816,67.76676819893157L241.33893203735352,81.80195761862315L243.65949869155884,77.15454741464127L245.98006534576416,70.46710963636203L248.3006319999695,89.1649667576313L250.6211986541748,80.97363455416473L252.94176530838013,70.47229365098917" fill="none"></path></g></g></g></g></g></g><g transform="translate(51, 177)" clip-path="url(#clip_1)"><clipPath id="clip_1"><rect width="278" height="22"></rect></clipPath><g><g><line x1="0" y1="0" x2="0" y2="5" style="visibility: inherit;" fill="rgb(0, 0, 0)" stroke="rgb(204, 204, 204)" stroke-width="1px"></line><line x1="23.205666542053223" y1="0" x2="23.205666542053223" y2="5" style="visibility: inherit;" fill="rgb(0, 0, 0)" stroke="rgb(204, 204, 204)" stroke-width="1px"></line><line x1="46.411333084106445" y1="0" x2="46.411333084106445" y2="5" style="visibility: inherit;" fill="rgb(0, 0, 0)" stroke="rgb(204, 204, 204)" stroke-width="1px"></line><line x1="69.61699962615967" y1="0" x2="69.61699962615967" y2="5" style="visibility: inherit;" fill="rgb(0, 0, 0)" stroke="rgb(204, 204, 204)" stroke-width="1px"></line><line x1="92.82266616821289" y1="0" x2="92.82266616821289" y2="5" style="visibility: inherit;" fill="rgb(0, 0, 0)" stroke="rgb(204, 204, 204)" stroke-width="1px"></line><line x1="116.02833271026611" y1="0" x2="116.02833271026611" y2="5" style="visibility: inherit;" fill="rgb(0, 0, 0)" stroke="rgb(204, 204, 204)" stroke-width="1px"></line><line x1="139.23399925231934" y1="0" x2="139.23399925231934" y2="5" style="visibility: inherit;" fill="rgb(0, 0, 0)" stroke="rgb(204, 204, 204)" stroke-width="1px"></line><line x1="162.43966579437256" y1="0" x2="162.43966579437256" y2="5" style="visibility: inherit;" fill="rgb(0, 0, 0)" stroke="rgb(204, 204, 204)" stroke-width="1px"></line><line x1="185.64533233642578" y1="0" x2="185.64533233642578" y2="5" style="visibility: inherit;" fill="rgb(0, 0, 0)" stroke="rgb(204, 204, 204)" stroke-width="1px"></line><line x1="208.850998878479" y1="0" x2="208.850998878479" y2="5" style="visibility: inherit;" fill="rgb(0, 0, 0)" stroke="rgb(204, 204, 204)" stroke-width="1px"></line><line x1="232.05666542053223" y1="0" x2="232.05666542053223" y2="5" style="visibility: inherit;" fill="rgb(0, 0, 0)" stroke="rgb(204, 204, 204)" stroke-width="1px"></line><line x1="255.26233196258545" y1="0" x2="255.26233196258545" y2="5" style="visibility: inherit;" fill="rgb(0, 0, 0)" stroke="rgb(204, 204, 204)" stroke-width="1px"></line><line x1="278.4679985046387" y1="0" x2="278.4679985046387" y2="5" style="visibility: inherit;" fill="rgb(0, 0, 0)" stroke="rgb(204, 204, 204)" stroke-width="1px"></line></g><g transform="translate(0, 8)"><text style="text-anchor: middle; visibility: hidden; font-family: Roboto, sans-serif; font-size: 12px; font-weight: 200;" x="0" y="0" dx="0em" dy="0.95em" fill="rgb(50, 49, 63)" stroke="none" stroke-width="1px">-10</text><text style="text-anchor: middle; visibility: inherit; font-family: Roboto, sans-serif; font-size: 12px; font-weight: 200;" x="23.205666542053223" y="0" dx="0em" dy="0.95em" fill="rgb(50, 49, 63)" stroke="none" stroke-width="1px">0</text><text style="text-anchor: middle; visibility: hidden; font-family: Roboto, sans-serif; font-size: 12px; font-weight: 200;" x="46.411333084106445" y="0" dx="0em" dy="0.95em" fill="rgb(50, 49, 63)" stroke="none" stroke-width="1px">10</text><text style="text-anchor: middle; visibility: inherit; font-family: Roboto, sans-serif; font-size: 12px; font-weight: 200;" x="69.61699962615967" y="0" dx="0em" dy="0.95em" fill="rgb(50, 49, 63)" stroke="none" stroke-width="1px">20</text><text style="text-anchor: middle; visibility: hidden; font-family: Roboto, sans-serif; font-size: 12px; font-weight: 200;" x="92.82266616821289" y="0" dx="0em" dy="0.95em" fill="rgb(50, 49, 63)" stroke="none" stroke-width="1px">30</text><text style="text-anchor: middle; visibility: inherit; font-family: Roboto, sans-serif; font-size: 12px; font-weight: 200;" x="116.02833271026611" y="0" dx="0em" dy="0.95em" fill="rgb(50, 49, 63)" stroke="none" stroke-width="1px">40</text><text style="text-anchor: middle; visibility: hidden; font-family: Roboto, sans-serif; font-size: 12px; font-weight: 200;" x="139.23399925231934" y="0" dx="0em" dy="0.95em" fill="rgb(50, 49, 63)" stroke="none" stroke-width="1px">50</text><text style="text-anchor: middle; visibility: inherit; font-family: Roboto, sans-serif; font-size: 12px; font-weight: 200;" x="162.43966579437256" y="0" dx="0em" dy="0.95em" fill="rgb(50, 49, 63)" stroke="none" stroke-width="1px">60</text><text style="text-anchor: middle; visibility: hidden; font-family: Roboto, sans-serif; font-size: 12px; font-weight: 200;" x="185.64533233642578" y="0" dx="0em" dy="0.95em" fill="rgb(50, 49, 63)" stroke="none" stroke-width="1px">70</text><text style="text-anchor: middle; visibility: inherit; font-family: Roboto, sans-serif; font-size: 12px; font-weight: 200;" x="208.850998878479" y="0" dx="0em" dy="0.95em" fill="rgb(50, 49, 63)" stroke="none" stroke-width="1px">80</text><text style="text-anchor: middle; visibility: hidden; font-family: Roboto, sans-serif; font-size: 12px; font-weight: 200;" x="232.05666542053223" y="0" dx="0em" dy="0.95em" fill="rgb(50, 49, 63)" stroke="none" stroke-width="1px">90</text><text style="text-anchor: middle; visibility: inherit; font-family: Roboto, sans-serif; font-size: 12px; font-weight: 200;" x="255.26233196258545" y="0" dx="0em" dy="0.95em" fill="rgb(50, 49, 63)" stroke="none" stroke-width="1px">100</text><text style="text-anchor: middle; visibility: hidden; font-family: Roboto, sans-serif; font-size: 12px; font-weight: 200;" x="278.4679985046387" y="0" dx="0em" dy="0.95em" fill="rgb(50, 49, 63)" stroke="none" stroke-width="1px">110</text></g><line x1="0" y1="0" x2="278.4679985046387" y2="0" fill="rgb(0, 0, 0)" stroke="rgb(204, 204, 204)" stroke-width="1px"></line></g></g></g></g></svg>