<svg viewBox="0 0 330 200" xmlns="http://www.w3.org/2000/svg"><g><g><g><g><g><line x1="61.91500186920166" y1="177.89999961853027" x2="56.91500186920166" y2="177.89999961853027" style="visibility: inherit;" fill="rgb(0, 0, 0)" stroke="rgb(204, 204, 204)" stroke-width="1px"></line><line x1="61.91500186920166" y1="164.21538426325873" x2="56.91500186920166" y2="164.21538426325873" style="visibility: inherit;" fill="rgb(0, 0, 0)" stroke="rgb(204, 204, 204)" stroke-width="1px"></line><line x1="61.91500186920166" y1="150.53076890798715" x2="56.91500186920166" y2="150.53076890798715" style="visibility: inherit;" fill="rgb(0, 0, 0)" stroke="rgb(204, 204, 204)" stroke-width="1px"></line><line x1="61.91500186920166" y1="136.84615355271558" x2="56.91500186920166" y2="136.84615355271558" style="visibility: inherit;" fill="rgb(0, 0, 0)" stroke="rgb(204, 204, 204)" stroke-width="1px"></line><line x1="61.91500186920166" y1="123.16153819744403" x2="56.91500186920166" y2="123.16153819744403" style="visibility: inherit;" fill="rgb(0, 0, 0)" stroke="rgb(204, 204, 204)" stroke-width="1px"></line><line x1="61.91500186920166" y1="109.47692284217248" x2="56.91500186920166" y2="109.47692284217248" style="visibility: inherit;" fill="rgb(0, 0, 0)" stroke="rgb(204, 204, 204)" stroke-width="1px"></line><line x1="61.91500186920166" y1="95.79230748690094" x2="56.91500186920166" y2="95.79230748690094" style="visibility: inherit;" fill="rgb(0, 0, 0)" stroke="rgb(204, 204, 204)" stroke-width="1px"></line><line x1="61.91500186920166" y1="82.10769213162936" x2="56.91500186920166" y2="82.10769213162936" style="visibility: inherit;" fill="rgb(0, 0, 0)" stroke="rgb(204, 204, 204)" stroke-width="1px"></line><line x1="61.91500186920166" y1="68.42307677635782" x2="56.91500186920166" y2="68.42307677635782" style="visibility: inherit;" fill="rgb(0, 0, 0)" stroke="rgb(204, 204, 204)" stroke-width="1px"></line><line x1="61.91500186920166" y1="54.73846142108624" x2="56.91500186920166" y2="54.73846142108624" style="visibility: inherit;" fill="rgb(0, 0, 0)" stroke="rgb(204, 204, 204)" stroke-width="1px"></line><line x1="61.91500186920166" y1="41.05384606581469" x2="56.91500186920166" y2="41.05384606581469" style="visibility: inherit;" fill="rgb(0, 0, 0)" stroke="rgb(204, 204, 204)" stroke-width="1px"></line><line x1="61.91500186920166" y1="27.36923071054312" x2="56.91500186920166" y2="27.36923071054312" style="visibility: inherit;" fill="rgb(0, 0, 0)" stroke="rgb(204, 204, 204)" stroke-width="1px"></line><line x1="61.91500186920166" y1="13.68461535527155" x2="56.91500186920166" y2="13.68461535527155" style="visibility: inherit;" fill="rgb(0, 0, 0)" stroke="rgb(204, 204, 204)" stroke-width="1px"></line><line x1="61.91500186920166" y1="0" x2="56.91500186920166" y2="0" style="visibility: inherit;" fill="rgb(0, 0, 0)" stroke="rgb(204, 204, 204)" stroke-width="1px"></line></g><g transform="translate(51.91500186920166, 0)"><text style="text-anchor: end; visibility: hidden; font-family: Roboto, sans-serif; font-size: 12px; font-weight: 200;" x="0" y="177.89999961853027" dx="0em" dy="0.3em" fill="rgb(50, 49, 63)" stroke="none" stroke-width="1px">-0.05</text><text style="text-anchor: end; visibility: inherit; font-family: Roboto, sans-serif; font-size: 12px; font-weight: 200;" x="0" y="164.21538426325873" dx="0em" dy="0.3em" fill="rgb(50, 49, 63)" stroke="none" stroke-width="1px">0</text><text style="text-anchor: end; visibility: hidden; font-family: Roboto, sans-serif; font-size: 12px; font-weight: 200;" x="0" y="150.53076890798715" dx="0em" dy="0.3em" fill="rgb(50, 49, 63)" stroke="none" stroke-width="1px">0.05</text><text style="text-anchor: end; visibility: inherit; font-family: Roboto, sans-serif; font-size: 12px; font-weight: 200;" x="0" y="136.84615355271558" dx="0em" dy="0.3em" fill="rgb(50, 49, 63)" stroke="none" stroke-width="1px">0.1</text><text style="text-anchor: end; visibility: hidden; font-family: Roboto, sans-serif; font-size: 12px; font-weight: 200;" x="0" y="123.16153819744403" dx="0em" dy="0.3em" fill="rgb(50, 49, 63)" stroke="none" stroke-width="1px">0.15</text><text style="text-anchor: end; visibility: inherit; font-family: Roboto, sans-serif; font-size: 12px; font-weight: 200;" x="0" y="109.47692284217248" dx="0em" dy="0.3em" fill="rgb(50, 49, 63)" stroke="none" stroke-width="1px">0.2</text><text style="text-anchor: end; visibility: hidden; font-family: Roboto, sans-serif; font-size: 12px; font-weight: 200;" x="0" y="95.79230748690094" dx="0em" dy="0.3em" fill="rgb(50, 49, 63)" stroke="none" stroke-width="1px">0.25</text><text style="text-anchor: end; visibility: inherit; font-family: Roboto, sans-serif; font-size: 12px; font-weight: 200;" x="0" y="82.10769213162936" dx="0em" dy="0.3em" fill="rgb(50, 49, 63)" stroke="none" stroke-width="1px">0.3</text><text style="text-anchor: end; visibility: hidden; font-family: Roboto, sans-serif; font-size: 12px; font-weight: 200;" x="0" y="68.42307677635782" dx="0em" dy="0.3em" fill="rgb(50, 49, 63)" stroke="none" stroke-width="1px">0.35</text><text style="text-anchor: end; visibility: inherit; font-family: Roboto, sans-serif; font-size: 12px; font-weight: 200;" x="0" y="54.73846142108624" dx="0em" dy="0.3em" fill="rgb(50, 49, 63)" stroke="none" stroke-width="1px">0.4</text><text style="text-anchor: end; visibility: hidden; font-family: Roboto, sans-serif; font-size: 12px; font-weight: 200;" x="0" y="41.05384606581469" dx="0em" dy="0.3em" fill="rgb(50, 49, 63)" stroke="none" stroke-width="1px">0.45</text><text style="text-anchor: end; visibility: inherit; font-family: Roboto, sans-serif; font-size: 12px; font-weight: 200;" x="0" y="27.36923071054312" dx="0em" dy="0.3em" fill="rgb(50, 49, 63)" stroke="none" stroke-width="1px">0.5</text><text style="text-anchor: end; visibility: hidden; font-family: Roboto, sans-serif; font-size: 12px; font-weight: 200;" x="0" y="13.68461535527155" dx="0em" dy="0.3em" fill="rgb(50, 49, 63)" stroke="none" stroke-width="1px">0.55</text><text style="text-anchor: end; visibility: hidden; font-family: Roboto, sans-serif; font-size: 12px; font-weight: 200;" x="0" y="0" dx="0em" dy="0.3em" fill="rgb(50, 49, 63)" stroke="none" stroke-width="1px">0.6</text></g><line x1="61.91500186920166" y1="0" x2="61.91500186920166" y2="177.89999961853027" fill="rgb(0, 0, 0)" stroke="rgb(204, 204, 204)" stroke-width="1px"></line></g></g><g transform="translate(61, 0)" clip-path="url(#clip_0)"><clipPath id="clip_0"><rect width="268" height="177"></rect></clipPath><g><g><g><line x1="0" y1="0" x2="0" y2="177.89999961853027" fill="rgb(0, 0, 0)" stroke="rgb(60, 60, 60)" stroke-width="1px" opacity="0.25"></line><line x1="22.34041651089986" y1="0" x2="22.34041651089986" y2="177.89999961853027" fill="rgb(0, 0, 0)" stroke="rgb(60, 60, 60)" stroke-width="1px" opacity="0.25"></line><line x1="44.68083302179972" y1="0" x2="44.68083302179972" y2="177.89999961853027" fill="rgb(0, 0, 0)" stroke="rgb(60, 60, 60)" stroke-width="1px" opacity="0.25"></line><line x1="67.02124953269958" y1="0" x2="67.02124953269958" y2="177.89999961853027" fill="rgb(0, 0, 0)" stroke="rgb(60, 60, 60)" stroke-width="1px" opacity="0.25"></line><line x1="89.36166604359944" y1="0" x2="89.36166604359944" y2="177.89999961853027" fill="rgb(0, 0, 0)" stroke="rgb(60, 60, 60)" stroke-width="1px" opacity="0.25"></line><line x1="111.70208255449931" y1="0" x2="111.70208255449931" y2="177.89999961853027" fill="rgb(0, 0, 0)" stroke="rgb(60, 60, 60)" stroke-width="1px" opacity="0.25"></line><line x1="134.04249906539917" y1="0" x2="134.04249906539917" y2="177.89999961853027" fill="rgb(0, 0, 0)" stroke="rgb(60, 60, 60)" stroke-width="1px" opacity="0.25"></line><line x1="156.38291557629904" y1="0" x2="156.38291557629904" y2="177.89999961853027" fill="rgb(0, 0, 0)" stroke="rgb(60, 60, 60)" stroke-width="1px" opacity="0.25"></line><line x1="178.72333208719888" y1="0" x2="178.72333208719888" y2="177.89999961853027" fill="rgb(0, 0, 0)" stroke="rgb(60, 60, 60)" stroke-width="1px" opacity="0.25"></line><line x1="201.06374859809875" y1="0" x2="201.06374859809875" y2="177.89999961853027" fill="rgb(0, 0, 0)" stroke="rgb(60, 60, 60)" stroke-width="1px" opacity="0.25"></line><line x1="223.40416510899863" y1="0" x2="223.40416510899863" y2="177.89999961853027" fill="rgb(0, 0, 0)" stroke="rgb(60, 60, 60)" stroke-width="1px" opacity="0.25"></line><line x1="245.74458161989847" y1="0" x2="245.74458161989847" y2="177.89999961853027" fill="rgb(0, 0, 0)" stroke="rgb(60, 60, 60)" stroke-width="1px" opacity="0.25"></line><line x1="268.08499813079834" y1="0" x2="268.08499813079834" y2="177.89999961853027" fill="rgb(0, 0, 0)" stroke="rgb(60, 60, 60)" stroke-width="1px" opacity="0.25"></line></g><g><line x1="0" y1="177.89999961853027" x2="268.08499813079834" y2="177.89999961853027" fill="rgb(0, 0, 0)" stroke="rgb(60, 60, 60)" stroke-width="1px" opacity="0.25"></line><line x1="0" y1="164.21538426325873" x2="268.08499813079834" y2="164.21538426325873" fill="rgb(0, 0, 0)" stroke="rgb(60, 60, 60)" stroke-width="1px" opacity="0.25"></line><line x1="0" y1="150.53076890798715" x2="268.08499813079834" y2="150.53076890798715" fill="rgb(0, 0, 0)" stroke="rgb(60, 60, 60)" stroke-width="1px" opacity="0.25"></line><line x1="0" y1="136.84615355271558" x2="268.08499813079834" y2="136.84615355271558" fill="rgb(0, 0, 0)" stroke="rgb(60, 60, 60)" stroke-width="1px" opacity="0.25"></line><line x1="0" y1="123.16153819744403" x2="268.08499813079834" y2="123.16153819744403" fill="rgb(0, 0, 0)" stroke="rgb(60, 60, 60)" stroke-width="1px" opacity="0.25"></line><line x1="0" y1="109.47692284217248" x2="268.08499813079834" y2="109.47692284217248" fill="rgb(0, 0, 0)" stroke="rgb(60, 60, 60)" stroke-width="1px" opacity="0.25"></line><line x1="0" y1="95.79230748690094" x2="268.08499813079834" y2="95.79230748690094" fill="rgb(0, 0, 0)" stroke="rgb(60, 60, 60)" stroke-width="1px" opacity="0.25"></line><line x1="0" y1="82.10769213162936" x2="268.08499813079834" y2="82.10769213162936" fill="rgb(0, 0, 0)" stroke="rgb(60, 60, 60)" stroke-width="1px" opacity="0.25"></line><line x1="0" y1="68.42307677635782" x2="268.08499813079834" y2="68.42307677635782" fill="rgb(0, 0, 0)" stroke="rgb(60, 60, 60)" stroke-width="1px" opacity="0.25"></line><line x1="0" y1="54.73846142108624" x2="268.08499813079834" y2="54.73846142108624" fill="rgb(0, 0, 0)" stroke="rgb(60, 60, 60)" stroke-width="1px" opacity="0.25"></line><line x1="0" y1="41.05384606581469" x2="268.08499813079834" y2="41.05384606581469" fill="rgb(0, 0, 0)" stroke="rgb(60, 60, 60)" stroke-width="1px" opacity="0.25"></line><line x1="0" y1="27.36923071054312" x2="268.08499813079834" y2="27.36923071054312" fill="rgb(0, 0, 0)" stroke="rgb(60, 60, 60)" stroke-width="1px" opacity="0.25"></line><line x1="0" y1="13.68461535527155" x2="268.08499813079834" y2="13.68461535527155" fill="rgb(0, 0, 0)" stroke="rgb(60, 60, 60)" stroke-width="1px" opacity="0.25"></line><line x1="0" y1="0" x2="268.08499813079834" y2="0" fill="rgb(0, 0, 0)" stroke="rgb(60, 60, 60)" stroke-width="1px" opacity="0.25"></line></g></g></g><g><g><line x1="0" y1="164.21538426325873" x2="268.08499813079834" y2="164.21538426325873" fill="rgb(0, 0, 0)" stroke="rgb(153, 153, 153)" stroke-width="1.5px"></line></g></g><g><g><line x1="22.34041651089986" y1="0" x2="22.34041651089986" y2="177.89999961853027" fill="rgb(0, 0, 0)" stroke="rgb(153, 153, 153)" stroke-width="1.5px"></line></g></g><g><g><g><g><g><path style="fill: none;" stroke="rgb(238, 51, 119)" stroke-width="2px" d="M22.34041651089986,164.1858846597433L24.574458161989845,163.83022214397275L26.808499813079834,163.05468248194381L29.042541464169823,161.52107645405175L31.276583115259807,160.38242258706734L33.51062476634979,158.94306217063237L35.74466641743978,158.02091757382408L37.97870806852976,156.16606993018374L40.21274971961975,154.70169698928567L42.44679137070973,151.9658278619954L44.68083302179972,147.54214607916387L46.91487467288971,142.90281801109552L49.14891632397969,140.1170828565089L51.38295797506969,140.95410522313108L53.61699962615967,139.8047007798931L55.85104127724966,138.8250223341129L58.085082928339645,136.60629505266127L60.31912457942963,134.74677742046876L62.553166230519615,134.2667979676597L64.7872078816096,133.33884172960666L67.02124953269958,132.28547485664555L69.25529118378958,130.17016674417633L71.48933283487956,130.93965546782508L73.72337448596954,128.64609468643906L75.95741613705952,127.56619656180106L78.19145778814952,123.7145978570513L80.4254994392395,125.21504975604701L82.6595410903295,127.39099558380158L84.89358274141946,126.3095031441492L87.12762439250946,126.49137763964053L89.36166604359944,128.0422577212503L91.59570769468944,123.40652842806206L93.82974934577942,123.63477551037047L96.0637909968694,119.71487347874132L98.29783264795938,119.87847438515458L100.53187429904938,122.7734498181363L102.76591595013937,122.76242881794316L104.99995760122935,121.48291785455777L107.23399925231934,124.19551890199753L109.46804090340932,121.5835347184016L111.70208255449931,122.83855730257562L113.9361242055893,123.6656366457902L116.17016585667929,123.8357350525103L118.40420750776926,123.05472566232577L120.63824915885925,118.85252997773947L122.87229080994923,115.94966002772264L125.10633246103923,117.29254131694518L127.34037411212921,121.73804542676517L129.5744157632192,119.86888248942292L131.80845741430917,119.50979322677327L134.04249906539917,116.6175289454086L136.27654071648914,120.34348918424347L138.51058236757916,120.58462989306763L140.74462401866913,118.05166019529248L142.97866566975912,113.99343897252122L145.2127073208491,118.17600314063672L147.4467489719391,117.48687555996548L149.68079062302908,112.90983845028683L151.91483227411905,108.07892234261428L154.14887392520905,109.23884927509077L156.38291557629904,114.671792692427L158.616957227389,112.67127565992209L160.850998878479,113.08229530608764L163.08504052956897,112.08604810611287L165.319082180659,115.03173021051938L167.55312383174896,115.36478806042142L169.78716548283893,112.82210194231095L172.02120713392895,117.03958438153963L174.25524878501892,113.96457943400064L176.48929043610892,112.800109979508L178.72333208719888,113.19085061204105L180.95737373828888,110.31976335798386L183.19141538937888,105.80163057408173L185.42545704046884,107.6603127963183L187.65949869155884,104.46188053848454L189.89354034264883,107.86535757577043L192.1275819937388,105.41464592411853L194.3616236448288,105.99435950491049L196.59566529591876,105.26422220174233L198.8297069470088,104.70508020889052L201.06374859809875,109.75013509106584L203.29779024918872,110.87427648392404L205.53183190027875,110.68749565481754L207.7658735513687,110.60633113490155L209.9999152024587,109.12072960496911L212.23395685354868,106.64576496167084L214.46799850463867,110.42030579462595L216.70204015572867,108.15327128778603L218.93608180681863,108.10671759212616L221.17012345790863,103.3701849471857L223.40416510899863,101.55039027388632L225.6382067600886,104.1531538068241L227.8722484111786,102.78338759937355L230.10629006226856,102.36695987089293L232.34033171335858,105.71978531405094L234.57437336444855,105.30610888507971L236.80841501553851,103.46501375336092L239.04245666662854,99.85534655167989L241.2764983177185,103.89591778332851L243.5105399688085,100.65891578526335L245.74458161989847,99.17596100446576L247.97862327098846,98.1474628170092" fill="none"></path></g><g><path style="fill: none;" stroke="rgb(51, 187, 238)" stroke-width="2px" d="M22.34041651089986,164.21408021622258L24.574458161989845,164.21491436280698L26.808499813079834,164.21502457924112L29.042541464169823,164.21487078686644L31.276583115259807,164.21546584478102L33.51062476634979,164.215408514365L35.74466641743978,164.21539853455158L37.97870806852976,164.21539272851533L40.21274971961975,164.21536664875626L42.44679137070973,164.21535568358908L44.68083302179972,164.21536715708243L46.91487467288971,164.21539363318493L49.14891632397969,164.21543480064705L51.38295797506969,164.21541456983803L53.61699962615967,164.21540244150373L55.85104127724966,164.21539516815383L58.085082928339645,164.21539080545733L60.31912457942963,164.21538818831206L62.553166230519615,164.21538661819505L64.7872078816096,164.2153856761861L67.02124953269958,164.21538511100275L69.25529118378958,164.21538477190066L71.48933283487956,164.2153845684423L73.72337448596954,164.21538770905028L75.95741613705952,164.21538633072973L78.19145778814952,164.2153855037399L80.4254994392395,164.21538500754693L82.6595410903295,164.21538470983145L84.89358274141946,164.2153845312023L87.12762439250946,164.21538442402485L89.36166604359944,164.2153843597184L91.59570769468944,164.2153843211345L93.82974934577942,164.21538429798417L96.0637909968694,164.21501845759676L98.29783264795938,163.95421548132475L100.53187429904938,162.17700325805254L102.76591595013937,158.2901663483041L104.99995760122935,153.87207876011863L107.23399925231934,147.69672373761114L109.46804090340932,139.81402347388968L111.70208255449931,133.2350390918659L113.9361242055893,131.54171874884747L116.17016585667929,130.26158595371044L118.40420750776926,129.17835226421903L120.63824915885925,124.488428247142L122.87229080994923,124.76287973426405L125.10633246103923,126.24933678072594L127.34037411212921,123.1507936356012L129.5744157632192,125.62777606165834L131.80845741430917,124.0163376933831L134.04249906539917,123.27447305161554L136.27654071648914,122.45938419328286L138.51058236757916,123.23898287636061L140.74462401866913,123.31301980045912L142.97866566975912,121.39927269047104L145.2127073208491,119.37546991150779L147.4467489719391,118.06627564289957L149.68079062302908,119.53783917336018L151.91483227411905,117.31972040523048L154.14887392520905,117.06163348151712L156.38291557629904,118.34625512651225L158.616957227389,114.52736656365903L160.850998878479,115.286000216869L163.08504052956897,116.84723741942143L165.319082180659,113.80254285775102L167.55312383174896,112.57921339556871L169.78716548283893,116.71826432785068L172.02120713392895,115.42168524872619L174.25524878501892,116.34841581954065L176.48929043610892,116.78542556100494L178.72333208719888,115.47491193615069L180.95737373828888,115.3932418557296L183.19141538937888,115.03126688747354L185.42545704046884,114.75608311461947L187.65949869155884,111.24572821200785L189.89354034264883,111.25977544035224L192.1275819937388,115.04116768744093L194.3616236448288,114.77739727937673L196.59566529591876,117.14156290255742L198.8297069470088,118.22123924939818L201.06374859809875,115.4882047265587L203.29779024918872,114.7603466218412L205.53183190027875,113.51420334031269L207.7658735513687,115.5319747452836L209.9999152024587,112.3934247750448L212.23395685354868,108.59696435483245L214.46799850463867,110.38668059012127L216.70204015572867,111.89092619637978L218.93608180681863,112.61114596540199L221.17012345790863,110.78656641651025L223.40416510899863,109.45090991456297L225.6382067600886,111.23282360787663L227.8722484111786,110.02903191014722L230.10629006226856,107.76949445049317L232.34033171335858,107.79702676662569L234.57437336444855,107.92787651749968L236.80841501553851,107.21897931719556L239.04245666662854,105.05751250452913L241.2764983177185,104.15486204732451L243.5105399688085,103.84551653459425" fill="none"></path></g><g><path style="fill: none;" stroke="rgb(187, 187, 187)" stroke-width="2px" d="M22.34041651089986,160.69862430265184L24.574458161989845,155.70088060492873L26.808499813079834,150.06925817439154L29.042541464169823,143.05073128200823L31.276583115259807,132.48697988503145L33.51062476634979,120.93442896122683L35.74466641743978,104.97122099871552L37.97870806852976,90.53376358896524L40.21274971961975,77.95407883099138L42.44679137070973,66.79554732416581L44.68083302179972,51.03254469757431L46.91487467288971,47.67905692696727L49.14891632397969,45.766167705381044L51.38295797506969,41.17556452196043L53.61699962615967,44.567973317066176L55.85104127724966,33.266769704663496L58.085082928339645,35.7114133936455L60.31912457942963,32.1983258044141L62.553166230519615,28.27856491238103L64.7872078816096,21.7854789626819L67.02124953269958,23.70791352810762L69.25529118378958,25.15602867268154L71.48933283487956,26.00654270451805L73.72337448596954,23.91435547015133L75.95741613705952,21.701578101450327L78.19145778814952,25.3702510631005L80.4254994392395,22.07391406458447L82.6595410903295,26.880764762826438L84.89358274141946,23.064883923804867L87.12762439250946,26.58961536712315L89.36166604359944,20.04724422614454L91.59570769468944,22.202604310107454L93.82974934577942,18.836327626212096L96.0637909968694,22.66724731991498L98.29783264795938,24.00846090542255L100.53187429904938,24.13319059824046L102.76591595013937,16.95945345198699L104.99995760122935,18.843086711618437L107.23399925231934,17.841472962011025L109.46804090340932,23.47826312686734L111.70208255449931,22.45837687411632L113.9361242055893,26.229296030435343L116.17016585667929,25.03306861261085L118.40420750776926,21.92903742410977L120.63824915885925,19.819745784264665L122.87229080994923,18.63554170422396L125.10633246103923,16.503736454311955L127.34037411212921,15.518671763112012L129.5744157632192,16.165801852933438L131.80845741430917,15.58264051797981L134.04249906539917,8.78482064639986L136.27654071648914,16.75614161262033L138.51058236757916,16.812328739436794L140.74462401866913,12.685997608786122L142.97866566975912,15.726637226702072L145.2127073208491,10.578448095194338L147.4467489719391,7.266126787045131L149.68079062302908,10.056654674525143L151.91483227411905,14.137442474563423L154.14887392520905,13.379568755991915L156.38291557629904,19.48486629270398L158.616957227389,14.580752282207843L160.850998878479,20.244206380368293L163.08504052956897,10.065501138755774L165.319082180659,5.417766620953538L167.55312383174896,5.681826815761726L169.78716548283893,10.49611419876743L172.02120713392895,15.03518480615468L174.25524878501892,15.160591899304862L176.48929043610892,12.839916551262679L178.72333208719888,13.488531129884016L180.95737373828888,14.852675996428504L183.19141538937888,11.645241206097065L185.42545704046884,7.836296760118218L187.65949869155884,9.863411805748601L189.89354034264883,9.053480077143712L192.1275819937388,6.021368692153739L194.3616236448288,4.438710439260985L196.59566529591876,7.380882874639945L198.8297069470088,12.363978168713725L201.06374859809875,11.870025257941663L203.29779024918872,5.3102864368845L205.53183190027875,10.215603906859078L207.7658735513687,16.33884369505657L209.9999152024587,11.603806141720927L212.23395685354868,5.423985999920286L214.46799850463867,8.018221468030672L216.70204015572867,17.106892752227154L218.93608180681863,15.840389066004352L221.17012345790863,23.21111388393481L223.40416510899863,15.99391082139154L225.6382067600886,13.167704364081938L227.8722484111786,10.585422633790387L230.10629006226856,12.489403427934478L232.34033171335858,9.533047476799094L234.57437336444855,7.202074864954174L236.80841501553851,8.861927971129122L239.04245666662854,6.326799386660848L241.2764983177185,-0.23011222705182285L243.5105399688085,5.5391721334478525" fill="none"></path></g></g></g></g><g opacity="0.2"><g><g><g><path style="fill: none;" stroke="rgb(238, 51, 119)" stroke-width="2px" d="M22.34041651089986,164.1858846597433L24.574458161989845,163.61682463451044L26.808499813079834,162.310164406396L29.042541464169823,159.71755576525072L31.276583115259807,158.89579609833248L33.51062476634979,156.95190854495291L35.74466641743978,156.70223604607463L37.97870806852976,153.46168425921877L40.21274971961975,152.54203134126104L42.44679137070973,147.90338105710092L44.68083302179972,140.94674587310388L46.91487467288971,135.9690729274667L49.14891632397969,135.9475760332449L51.38295797506969,142.20799895911207L53.61699962615967,138.0819451968122L55.85104127724966,137.35619561058496L58.085082928339645,133.27914302151117L60.31912457942963,131.95797310350537L62.553166230519615,133.54690190848476L64.7872078816096,131.9469921914029L67.02124953269958,130.70548231634663L69.25529118378958,126.99727418058703L71.48933283487956,132.09387336108566L73.72337448596954,125.20578068377398L75.95741613705952,125.94635705029782L78.19145778814952,117.93721622523577L80.4254994392395,127.46572376529542L82.6595410903295,130.65491098484404L84.89358274141946,124.68726548087804L87.12762439250946,126.76418928235825L89.36166604359944,130.36857732937622L91.59570769468944,116.4529354106347L93.82974934577942,123.977146106585L96.0637909968694,113.83502071207218L98.29783264795938,120.12387573774343L100.53187429904938,127.11591289295887L102.76591595013937,122.74589731782395L104.99995760122935,119.56365142135738L107.23399925231934,128.26442045804856L109.46804090340932,117.66555845173667L111.70208255449931,124.72109117632019L113.9361242055893,124.90625565961707L116.17016585667929,124.0908826624676L118.40420750776926,121.88321157738727L120.63824915885925,112.54923645195203L122.87229080994923,111.59535510315004L125.10633246103923,119.30686325065334L127.34037411212921,128.40630159124566L129.5744157632192,117.06513808347242L131.80845741430917,118.97115933280611L134.04249906539917,112.2791325233967L136.27654071648914,125.93242954246867L138.51058236757916,120.94634095630278L140.74462401866913,114.25220564863639L142.97866566975912,107.90610713837071L145.2127073208491,124.44984939280604L147.4467489719391,116.45318418895903L149.68079062302908,106.0442827857704L151.91483227411905,100.83254818110646L154.14887392520905,110.97873967380539L156.38291557629904,122.82120781843096L158.616957227389,109.67050011116481L160.850998878479,113.69882477533594L163.08504052956897,110.59167730615073L165.319082180659,119.45025336712916L167.55312383174896,115.86437483527442L169.78716548283893,109.00807276514527L172.02120713392895,123.36580804038263L174.25524878501892,109.35207201269219L176.48929043610892,111.05340579776907L178.72333208719888,113.77696156084062L180.95737373828888,106.01313247689808L183.19141538937888,99.02443139822853L185.42545704046884,110.44833612967312L187.65949869155884,99.66423215173384L189.89354034264883,112.97057313169927L192.1275819937388,101.7385784466407L194.3616236448288,106.86392987609844L196.59566529591876,104.16901624699004L198.8297069470088,103.86636721961287L201.06374859809875,117.31771741432883L203.29779024918872,112.56048857321136L205.53183190027875,110.40732441115779L207.7658735513687,110.48458435502758L209.9999152024587,106.89232731007044L212.23395685354868,102.9333179967234L214.46799850463867,116.08211704405863L216.70204015572867,104.75271952752612L218.93608180681863,108.03688704863637L221.17012345790863,96.26538597977506L223.40416510899863,98.82069826393717L225.6382067600886,108.05729910623077L227.8722484111786,100.7287382881978L230.10629006226856,101.74231827817198L232.34033171335858,110.74902347878799L234.57437336444855,104.6855942416228L236.80841501553851,100.70337105578278L239.04245666662854,94.44084574915837L241.2764983177185,109.95677463080142L243.5105399688085,95.80341278816557L245.74458161989847,96.95152883326944L247.97862327098846,96.60471553582437" fill="none"></path></g><g><path style="fill: none;" stroke="rgb(51, 187, 238)" stroke-width="2px" d="M22.34041651089986,164.21408021622258L24.574458161989845,164.2154148507576L26.808499813079834,164.2151303870179L29.042541464169823,164.21468992703385L31.276583115259807,164.2162427523943L33.51062476634979,164.2153292057607L35.74466641743978,164.21538426325873L37.97870806852976,164.21538426325873L40.21274971961975,164.2153281861774L42.44679137070973,164.21533940159367L44.68083302179972,164.21538426325873L46.91487467288971,164.21543320325694L49.14891632397969,164.21549641742132L51.38295797506969,164.21538426325873L53.61699962615967,164.21538426325873L55.85104127724966,164.21538426325873L58.085082928339645,164.21538426325873L60.31912457942963,164.21538426325873L62.553166230519615,164.21538426325873L64.7872078816096,164.21538426325873L67.02124953269958,164.21538426325873L69.25529118378958,164.21538426325873L71.48933283487956,164.21538426325873L73.72337448596954,164.21539241992508L75.95741613705952,164.21538426325873L78.19145778814952,164.21538426325873L80.4254994392395,164.21538426325873L82.6595410903295,164.21538426325873L84.89358274141946,164.21538426325873L87.12762439250946,164.21538426325873L89.36166604359944,164.21538426325873L91.59570769468944,164.21538426325873L93.82974934577942,164.21538426325873L96.0637909968694,164.21446969704184L98.29783264795938,163.5630110281252L100.53187429904938,159.51118496897152L102.76591595013937,152.4599110438172L104.99995760122935,147.24494741885346L107.23399925231934,138.43369123824533L109.46804090340932,127.98997310465046L111.70208255449931,123.36656253202199L113.9361242055893,129.001738236357L116.17016585667929,128.34138676192896L118.40420750776926,127.5535017304511L120.63824915885925,117.45354222274517L122.87229080994923,125.17455696490433L125.10633246103923,128.47902235027976L127.34037411212921,118.50297891808799L129.5744157632192,129.34324970066064L131.80845741430917,121.59918014100276L134.04249906539917,122.16167608897325L136.27654071648914,121.2367509057897L138.51058236757916,124.4083809009739L140.74462401866913,123.42407518660664L142.97866566975912,118.52865202549191L145.2127073208491,116.33976574306487L147.4467489719391,116.102484239988L149.68079062302908,121.74518446905063L151.91483227411905,113.99254225303642L154.14887392520905,116.67450309594709L156.38291557629904,120.27318759400487L158.616957227389,108.79903371937934L160.850998878479,116.42395069668396L163.08504052956897,119.18909322325004L165.319082180659,109.2355010152455L167.55312383174896,110.74421920229526L169.78716548283893,122.92684072627361L172.02120713392895,113.47681663003948L174.25524878501892,117.73851167576237L176.48929043610892,117.4409401732014L178.72333208719888,113.50914149886927L180.95737373828888,115.270736735098L183.19141538937888,114.48830443508939L185.42545704046884,114.34330745533842L187.65949869155884,105.98019585809041L189.89354034264883,111.28084628286888L192.1275819937388,120.71325605807402L194.3616236448288,114.38174166728038L196.59566529591876,120.68781133732847L198.8297069470088,119.84075376965936L201.06374859809875,111.3886529422995L203.29779024918872,113.66855946476488L205.53183190027875,111.64498841801992L207.7658735513687,118.55863185273995L209.9999152024587,107.68559981968662L212.23395685354868,102.90227372451389L214.46799850463867,113.0712549430545L216.70204015572867,114.14729460576757L218.93608180681863,113.6914756189353L221.17012345790863,108.04969709317265L223.40416510899863,107.44742516164209L225.6382067600886,113.90569414784707L227.8722484111786,108.22334436355311L230.10629006226856,104.3801882610121L232.34033171335858,107.83832524082447L234.57437336444855,108.12415114381068L236.80841501553851,106.15563351673941L239.04245666662854,101.8153122855295L241.2764983177185,102.80088636151754L243.5105399688085,103.38149826549886" fill="none"></path></g><g><path style="fill: none;" stroke="rgb(187, 187, 187)" stroke-width="2px" d="M22.34041651089986,160.69862430265184L24.574458161989845,152.70223438629486L26.808499813079834,144.66290064107582L29.042541464169823,134.79694365656547L31.276583115259807,118.69494606113861L33.51062476634979,104.95309211527245L35.74466641743978,82.14357820099693L37.97870806852976,69.48381208595825L40.21274971961975,59.40148729094727L42.44679137070973,50.2264284964258L44.68083302179972,27.531010031353222L46.91487467288971,42.66707480341438L49.14891632397969,42.90307978820413L51.38295797506969,34.29865321635859L53.61699962615967,49.652598860532265L55.85104127724966,16.322934770428734L58.085082928339645,39.377344435838836L60.31912457942963,26.929586393125284L62.553166230519615,22.399520710450986L64.7872078816096,12.046443531908153L67.02124953269958,26.59145994536576L69.25529118378958,27.32815373869679L71.48933283487956,27.28229696035686L73.72337448596954,20.776099402553598L75.95741613705952,18.382427775873282L78.19145778814952,30.873244860361385L80.4254994392395,17.129417001233378L82.6595410903295,34.09103343054127L84.89358274141946,17.34106618023816L87.12762439250946,31.87671058403504L89.36166604359944,10.233689684198088L91.59570769468944,25.43564400720732L93.82974934577942,13.786913002234947L96.0637909968694,28.413626586068403L98.29783264795938,26.020281226042933L100.53187429904938,24.320285134250955L102.76591595013937,6.198847843596246L104.99995760122935,21.668536583579915L107.23399925231934,16.339052343178597L109.46804090340932,31.933448355314425L111.70208255449931,20.928547497034835L113.9361242055893,31.885674760377192L116.17016585667929,23.238727486737623L118.40420750776926,17.272990642702553L120.63824915885925,16.65580832504509L122.87229080994923,16.859235584347516L125.10633246103923,13.306028579643398L127.34037411212921,14.041074726367414L129.5744157632192,17.13649698764374L131.80845741430917,14.70789851556114L134.04249906539917,-1.4119091608876562L136.27654071648914,28.71312306189302L138.51058236757916,16.896609429661204L140.74462401866913,6.4965009128209505L142.97866566975912,20.28759665357115L145.2127073208491,2.856164397937674L147.4467489719391,2.2976448248232373L149.68079062302908,14.242446505744233L151.91483227411905,20.258624174619996L154.14887392520905,12.242758178134721L156.38291557629904,28.642812597771666L158.616957227389,7.224581266463793L160.850998878479,28.7393875276089L163.08504052956897,-5.202556723662887L165.319082180659,-1.5538351557498165L167.55312383174896,6.077917107974058L169.78716548283893,17.717545273275938L172.02120713392895,21.843790717235557L174.25524878501892,15.348702539030143L176.48929043610892,9.358903529199466L178.72333208719888,14.461452997816023L180.95737373828888,16.898893296245205L183.19141538937888,6.834089020599954L185.42545704046884,2.122880091149859L187.65949869155884,12.90408437419413L189.89354034264883,7.838582484236415L192.1275819937388,1.4732016146687987L194.3616236448288,2.0647230599218753L196.59566529591876,11.794141527708376L198.8297069470088,19.838621109824462L201.06374859809875,11.129095891783608L203.29779024918872,-4.529321794701223L205.53183190027875,17.573580111820945L207.7658735513687,25.52370337735283L209.9999152024587,4.50124981171746L212.23395685354868,-3.8457442127806845L214.46799850463867,11.909574670196262L216.70204015572867,30.739899678521937L218.93608180681863,13.940633536670138L221.17012345790863,34.26720111083052L223.40416510899863,5.168106227576664L225.6382067600886,8.928394678117598L227.8722484111786,6.712000038353017L230.10629006226856,15.345374619150617L232.34033171335858,5.098513550095989L234.57437336444855,3.705615947186774L236.80841501553851,11.351707630391532L239.04245666662854,2.524106509958448L241.2764983177185,-10.0654796476208L243.5105399688085,14.193098674197335" fill="none"></path></g></g></g></g></g></g><g transform="translate(61, 177)" clip-path="url(#clip_1)"><clipPath id="clip_1"><rect width="268" height="22"></rect></clipPath><g><g><line x1="0" y1="0" x2="0" y2="5" style="visibility: inherit;" fill="rgb(0, 0, 0)" stroke="rgb(204, 204, 204)" stroke-width="1px"></line><line x1="22.34041651089986" y1="0" x2="22.34041651089986" y2="5" style="visibility: inherit;" fill="rgb(0, 0, 0)" stroke="rgb(204, 204, 204)" stroke-width="1px"></line><line x1="44.68083302179972" y1="0" x2="44.68083302179972" y2="5" style="visibility: inherit;" fill="rgb(0, 0, 0)" stroke="rgb(204, 204, 204)" stroke-width="1px"></line><line x1="67.02124953269958" y1="0" x2="67.02124953269958" y2="5" style="visibility: inherit;" fill="rgb(0, 0, 0)" stroke="rgb(204, 204, 204)" stroke-width="1px"></line><line x1="89.36166604359944" y1="0" x2="89.36166604359944" y2="5" style="visibility: inherit;" fill="rgb(0, 0, 0)" stroke="rgb(204, 204, 204)" stroke-width="1px"></line><line x1="111.70208255449931" y1="0" x2="111.70208255449931" y2="5" style="visibility: inherit;" fill="rgb(0, 0, 0)" stroke="rgb(204, 204, 204)" stroke-width="1px"></line><line x1="134.04249906539917" y1="0" x2="134.04249906539917" y2="5" style="visibility: inherit;" fill="rgb(0, 0, 0)" stroke="rgb(204, 204, 204)" stroke-width="1px"></line><line x1="156.38291557629904" y1="0" x2="156.38291557629904" y2="5" style="visibility: inherit;" fill="rgb(0, 0, 0)" stroke="rgb(204, 204, 204)" stroke-width="1px"></line><line x1="178.72333208719888" y1="0" x2="178.72333208719888" y2="5" style="visibility: inherit;" fill="rgb(0, 0, 0)" stroke="rgb(204, 204, 204)" stroke-width="1px"></line><line x1="201.06374859809875" y1="0" x2="201.06374859809875" y2="5" style="visibility: inherit;" fill="rgb(0, 0, 0)" stroke="rgb(204, 204, 204)" stroke-width="1px"></line><line x1="223.40416510899863" y1="0" x2="223.40416510899863" y2="5" style="visibility: inherit;" fill="rgb(0, 0, 0)" stroke="rgb(204, 204, 204)" stroke-width="1px"></line><line x1="245.74458161989847" y1="0" x2="245.74458161989847" y2="5" style="visibility: inherit;" fill="rgb(0, 0, 0)" stroke="rgb(204, 204, 204)" stroke-width="1px"></line><line x1="268.08499813079834" y1="0" x2="268.08499813079834" y2="5" style="visibility: inherit;" fill="rgb(0, 0, 0)" stroke="rgb(204, 204, 204)" stroke-width="1px"></line></g><g transform="translate(0, 8)"><text style="text-anchor: middle; visibility: hidden; font-family: Roboto, sans-serif; font-size: 12px; font-weight: 200;" x="0" y="0" dx="0em" dy="0.95em" fill="rgb(50, 49, 63)" stroke="none" stroke-width="1px">-10</text><text style="text-anchor: middle; visibility: hidden; font-family: Roboto, sans-serif; font-size: 12px; font-weight: 200;" x="22.34041651089986" y="0" dx="0em" dy="0.95em" fill="rgb(50, 49, 63)" stroke="none" stroke-width="1px">0</text><text style="text-anchor: middle; visibility: hidden; font-family: Roboto, sans-serif; font-size: 12px; font-weight: 200;" x="44.68083302179972" y="0" dx="0em" dy="0.95em" fill="rgb(50, 49, 63)" stroke="none" stroke-width="1px">10</text><text style="text-anchor: middle; visibility: hidden; font-family: Roboto, sans-serif; font-size: 12px; font-weight: 200;" x="67.02124953269958" y="0" dx="0em" dy="0.95em" fill="rgb(50, 49, 63)" stroke="none" stroke-width="1px">20</text><text style="text-anchor: middle; visibility: hidden; font-family: Roboto, sans-serif; font-size: 12px; font-weight: 200;" x="89.36166604359944" y="0" dx="0em" dy="0.95em" fill="rgb(50, 49, 63)" stroke="none" stroke-width="1px">30</text><text style="text-anchor: middle; visibility: hidden; font-family: Roboto, sans-serif; font-size: 12px; font-weight: 200;" x="111.70208255449931" y="0" dx="0em" dy="0.95em" fill="rgb(50, 49, 63)" stroke="none" stroke-width="1px">40</text><text style="text-anchor: middle; visibility: hidden; font-family: Roboto, sans-serif; font-size: 12px; font-weight: 200;" x="134.04249906539917" y="0" dx="0em" dy="0.95em" fill="rgb(50, 49, 63)" stroke="none" stroke-width="1px">50</text><text style="text-anchor: middle; visibility: hidden; font-family: Roboto, sans-serif; font-size: 12px; font-weight: 200;" x="156.38291557629904" y="0" dx="0em" dy="0.95em" fill="rgb(50, 49, 63)" stroke="none" stroke-width="1px">60</text><text style="text-anchor: middle; visibility: hidden; font-family: Roboto, sans-serif; font-size: 12px; font-weight: 200;" x="178.72333208719888" y="0" dx="0em" dy="0.95em" fill="rgb(50, 49, 63)" stroke="none" stroke-width="1px">70</text><text style="text-anchor: middle; visibility: hidden; font-family: Roboto, sans-serif; font-size: 12px; font-weight: 200;" x="201.06374859809875" y="0" dx="0em" dy="0.95em" fill="rgb(50, 49, 63)" stroke="none" stroke-width="1px">80</text><text style="text-anchor: middle; visibility: hidden; font-family: Roboto, sans-serif; font-size: 12px; font-weight: 200;" x="223.40416510899863" y="0" dx="0em" dy="0.95em" fill="rgb(50, 49, 63)" stroke="none" stroke-width="1px">90</text><text style="text-anchor: middle; visibility: hidden; font-family: Roboto, sans-serif; font-size: 12px; font-weight: 200;" x="245.74458161989847" y="0" dx="0em" dy="0.95em" fill="rgb(50, 49, 63)" stroke="none" stroke-width="1px">100</text><text style="text-anchor: middle; visibility: hidden; font-family: Roboto, sans-serif; font-size: 12px; font-weight: 200;" x="268.08499813079834" y="0" dx="0em" dy="0.95em" fill="rgb(50, 49, 63)" stroke="none" stroke-width="1px">110</text></g><line x1="0" y1="0" x2="268.08499813079834" y2="0" fill="rgb(0, 0, 0)" stroke="rgb(204, 204, 204)" stroke-width="1px"></line></g></g></g></g></svg>